<?xml version="1.0" encoding="utf-8"?>
<!-- Generator: Adobe Illustrator 18.0.0, SVG Export Plug-In . SVG Version: 6.00 Build 0)  -->
<!DOCTYPE svg PUBLIC "-//W3C//DTD SVG 1.1//EN" "http://www.w3.org/Graphics/SVG/1.1/DTD/svg11.dtd">
<svg version="1.1" id="Layer_1" xmlns="http://www.w3.org/2000/svg" xmlns:xlink="http://www.w3.org/1999/xlink" x="0px" y="0px"
	 viewBox="0 0 255.1 170.1" enable-background="new 0 0 255.1 170.1" xml:space="preserve">
<g>
	<polygon opacity="0.5" fill="#F68A1F" points="168.6,59.3 169.1,69.9 179,67.6 179,73.5 176.1,83.6 184.4,84.3 184.4,90.2 
		178.5,98.9 184.4,102 184.4,107.7 176.1,114.2 179,118.5 179,124.4 169.1,128 168.6,138.6 158.1,139 154.5,148.9 144.3,146 
		137.8,154.3 129,148.4 120.3,154.3 113.7,146 103.6,148.9 99.9,139 89.4,138.6 89,128 79.1,124.4 79.1,118.5 82,114.2 73.7,107.7 
		73.7,101.9 79.6,98.9 73.7,90.2 73.7,84.3 82,83.6 79.1,73.5 79.1,67.6 89,69.9 89.4,59.3 99.9,58.9 103.6,49 113.7,51.9 
		120.3,43.6 129,49.5 137.8,43.6 144.3,51.9 154.5,49 158.1,58.9 	"/>
	<polygon fill="#2B52A4" points="168.6,57.6 169.1,68.2 179,66 179,71.8 176.1,81.9 184.4,82.6 184.4,88.5 178.5,97.2 184.4,100.3 
		184.4,106 176.1,112.5 179,116.8 179,122.7 169.1,126.3 168.6,136.9 158.1,137.3 154.5,147.2 144.3,144.3 137.8,152.6 129,146.7 
		120.3,152.6 113.7,144.3 103.6,147.2 99.9,137.3 89.4,136.9 89,126.3 79.1,122.7 79.1,116.8 82,112.5 73.7,106 73.7,100.2 
		79.6,97.2 73.7,88.5 73.7,82.6 82,81.9 79.1,71.8 79.1,66 89,68.2 89.4,57.6 99.9,57.2 103.6,47.3 113.7,50.2 120.3,41.9 129,47.8 
		137.8,41.9 144.3,50.2 154.5,47.3 158.1,57.2 	"/>
	<polygon fill="#4B90CD" points="168.6,51.8 169.1,62.3 179,66 176.1,76.1 184.4,82.6 178.5,91.4 184.4,100.2 176.1,106.7 
		179,116.8 169.1,120.5 168.6,131 158.1,131.4 154.5,141.3 144.3,138.5 137.8,146.7 129,140.9 120.3,146.7 113.7,138.5 103.6,141.3 
		99.9,131.4 89.4,131 89,120.5 79.1,116.8 82,106.7 73.7,100.2 79.6,91.4 73.7,82.6 82,76.1 79.1,66 89,62.3 89.4,51.8 99.9,51.4 
		103.6,41.5 113.7,44.3 120.3,36 129,41.9 137.8,36 144.3,44.3 154.5,41.5 158.1,51.4 	"/>
	<g>
		<polygon fill="#65AFE1" points="112.3,138.9 113.7,138.5 120.3,146.7 123.8,144.4 182,86.2 184.4,82.6 176.1,76.1 176.5,74.6 		
			"/>
		<polygon fill="#65AFE1" points="79.6,91.4 73.7,100.2 82,106.7 79.1,116.8 79.4,117 154.6,41.8 154.5,41.5 144.3,44.3 137.8,36 
			129,41.9 121.7,37 74.6,84.1 		"/>
		<polygon fill="#65AFE1" points="156.4,46.7 84.4,118.8 89,120.5 89.1,123.3 160.9,51.5 158.1,51.4 		"/>
		<polygon fill="#65AFE1" points="169,60 97.6,131.3 99.9,131.4 100.5,133 170.7,62.9 169.1,62.3 		"/>
	</g>
	<g>
		<circle fill="#6B1548" cx="196.2" cy="112.7" r="4.3"/>
		<circle fill="#9E1F63" cx="196.2" cy="111.8" r="4.3"/>
		<circle fill="#FED307" cx="196.2" cy="111.8" r="3.9"/>
		<g>
			<path fill="#FCAF17" d="M198.4,108.5l-5.5,5.5c0.4,0.6,0.9,1,1.5,1.3l5.3-5.3C199.4,109.4,199,108.9,198.4,108.5z"/>
			<path fill="#FCAF17" d="M200.1,111.4c0-0.2-0.1-0.4-0.1-0.6l-4.8,4.8c0.2,0,0.4,0.1,0.6,0.1L200.1,111.4z"/>
			<path fill="#FCAF17" d="M192.2,112.1c0,0.3,0.1,0.7,0.2,1l5-5c-0.3-0.1-0.6-0.2-1-0.2L192.2,112.1z"/>
		</g>
		<circle fill="#FCF174" cx="196.2" cy="111.8" r="2.8"/>
		<g>
			<path fill="#D76E27" d="M197.5,110.4l-3,0v0.4l-0.1,0l-0.1,0.1l0.1,0.1l0,0h2.6c0,0,0.3,0,0.3,0.2v0.4c0,0,0,0.1-0.3,0.1
				s-2.6,0-2.6,0v1.5l-0.1,0l-0.1,0.1l0.1,0.1l0.8,0v-1.2h2.2c0,0,0.7,0,0.7-0.6V111C198.2,111,198.2,110.4,197.5,110.4z"/>
			<g>
				<path fill="#FEBC12" d="M194.4,113.3l0.8,0v-1.2h2.2c0,0,0.7,0,0.7-0.6v-0.7c0,0,0.1-0.6-0.7-0.6l-3,0v0.6h2.6
					c0,0,0.3,0,0.3,0.2v0.4c0,0,0,0.1-0.3,0.1s-2.6,0-2.6,0V113.3z"/>
			</g>
		</g>
	</g>
	<g>
		<circle fill="#6B1548" cx="101.9" cy="49.6" r="4.5"/>
		<circle fill="#9E1F63" cx="101.9" cy="48.6" r="4.5"/>
		<circle fill="#FED307" cx="101.9" cy="48.6" r="4.1"/>
		<g>
			<path fill="#FCAF17" d="M104.3,45.2L98.6,51c0.4,0.6,0.9,1,1.6,1.4l5.5-5.5C105.3,46.2,104.8,45.6,104.3,45.2z"/>
			<path fill="#FCAF17" d="M106,48.3c0-0.2-0.1-0.4-0.1-0.6l-5,5c0.2,0,0.4,0.1,0.6,0.1L106,48.3z"/>
			<path fill="#FCAF17" d="M97.8,48.9c0,0.4,0.1,0.7,0.2,1l5.2-5.2c-0.3-0.1-0.7-0.2-1-0.2L97.8,48.9z"/>
		</g>
		<circle fill="#FCF174" cx="101.9" cy="48.6" r="3"/>
		<g>
			<path fill="#D76E27" d="M103.3,47.2l-3.1,0v0.4l-0.1,0l-0.1,0.1l0.1,0.1l0,0h2.7c0,0,0.3,0,0.3,0.2v0.4c0,0,0,0.2-0.3,0.2
				c-0.3,0-2.7,0-2.7,0v1.6l-0.1,0l-0.1,0.1l0.1,0.1l0.8,0v-1.2h2.3c0,0,0.7,0,0.7-0.6v-0.8C104,47.8,104.1,47.2,103.3,47.2z"/>
			<g>
				<path fill="#FEBC12" d="M100.1,50.2l0.8,0V49h2.3c0,0,0.7,0,0.7-0.6v-0.8c0,0,0.1-0.6-0.7-0.6l-3.1,0v0.6h2.7c0,0,0.3,0,0.3,0.2
					v0.4c0,0,0,0.2-0.3,0.2c-0.3,0-2.7,0-2.7,0V50.2z"/>
			</g>
		</g>
	</g>
	<g>
		<circle fill="#6B1548" cx="77.1" cy="42.7" r="9.4"/>
		<circle fill="#9E1F63" cx="77.1" cy="40.7" r="9.4"/>
		<circle fill="#FED307" cx="77.1" cy="40.7" r="8.6"/>
		<g>
			<path fill="#FCAF17" d="M82,33.6l-12,12c0.8,1.2,2,2.2,3.3,2.9l11.5-11.5C84.2,35.6,83.2,34.4,82,33.6z"/>
			<path fill="#FCAF17" d="M85.7,39.9c0-0.4-0.1-0.9-0.2-1.3L75,49.1c0.4,0.1,0.9,0.2,1.3,0.2L85.7,39.9z"/>
			<path fill="#FCAF17" d="M68.5,41.3c0.1,0.8,0.2,1.5,0.4,2.2l11-11c-0.7-0.2-1.4-0.4-2.2-0.4L68.5,41.3z"/>
		</g>
		<circle fill="#FCF174" cx="77.1" cy="40.7" r="6.2"/>
		<g>
			<path fill="#D76E27" d="M80,37.7l-6.6,0v0.8l-0.1,0l-0.1,0.2l0.3,0.3l0,0h5.7c0,0,0.6,0,0.6,0.4v0.9c0,0,0,0.3-0.6,0.3
				c-0.6,0-5.7,0-5.7,0v3.3l-0.1,0l-0.1,0.2l0.3,0.3l1.8,0v-2.5H80c0,0,1.4,0.1,1.4-1.3V39C81.4,39,81.6,37.7,80,37.7z"/>
			<g>
				<path fill="#FEBC12" d="M73.2,44.1l1.8,0v-2.5h4.8c0,0,1.4,0.1,1.4-1.3v-1.6c0,0,0.2-1.2-1.4-1.2l-6.6,0v1.2h5.7
					c0,0,0.6,0,0.6,0.4V40c0,0,0,0.3-0.6,0.3s-5.7,0-5.7,0V44.1z"/>
			</g>
		</g>
	</g>
	<g>
		<circle fill="#6B1548" cx="186.1" cy="149" r="10.3"/>
		<circle fill="#9E1F63" cx="186.1" cy="146.8" r="10.3"/>
		<circle fill="#FED307" cx="186.1" cy="146.8" r="9.4"/>
		<g>
			<path fill="#FCAF17" d="M191.4,139.1l-13,13c0.9,1.3,2.1,2.4,3.6,3.1l12.6-12.6C193.8,141.2,192.7,140,191.4,139.1z"/>
			<path fill="#FCAF17" d="M195.4,146c0-0.5-0.1-0.9-0.2-1.4l-11.4,11.4c0.5,0.1,0.9,0.2,1.4,0.2L195.4,146z"/>
			<path fill="#FCAF17" d="M176.7,147.5c0.1,0.8,0.2,1.6,0.5,2.3l11.9-11.9c-0.7-0.3-1.5-0.4-2.3-0.5L176.7,147.5z"/>
		</g>
		<circle fill="#FCF174" cx="186.1" cy="146.8" r="6.8"/>
		<g>
			<path fill="#D76E27" d="M189.3,143.6l-7.2,0v0.9l-0.2,0l-0.1,0.2l0.3,0.3l0,0h6.2c0,0,0.6,0,0.6,0.4v1c0,0,0,0.4-0.6,0.4
				c-0.6,0-6.2,0-6.2,0v3.6l-0.1,0l-0.1,0.2l0.3,0.3l1.9,0v-2.8h5.2c0,0,1.6,0.1,1.6-1.4v-1.7C190.8,144.9,191,143.6,189.3,143.6z"
				/>
			<g>
				<path fill="#FEBC12" d="M181.8,150.5l1.9,0v-2.8h5.2c0,0,1.6,0.1,1.6-1.4v-1.7c0,0,0.2-1.3-1.6-1.3l-7.2,0v1.4h6.2
					c0,0,0.6,0,0.6,0.4v1c0,0,0,0.4-0.6,0.4s-6.2,0-6.2,0V150.5z"/>
			</g>
		</g>
	</g>
	<g>
		<circle fill="#6B1548" cx="56.8" cy="78.7" r="6.2"/>
		<circle fill="#9E1F63" cx="56.8" cy="77.3" r="6.2"/>
		<circle fill="#FED307" cx="56.8" cy="77.3" r="5.7"/>
		<g>
			<path fill="#FCAF17" d="M60,72.7l-7.9,7.9c0.5,0.8,1.3,1.4,2.2,1.9l7.6-7.6C61.5,74,60.8,73.2,60,72.7z"/>
			<path fill="#FCAF17" d="M62.5,76.8c0-0.3-0.1-0.6-0.1-0.8l-6.9,6.9c0.3,0.1,0.6,0.1,0.8,0.1L62.5,76.8z"/>
			<path fill="#FCAF17" d="M51.2,77.7c0,0.5,0.1,1,0.3,1.4l7.2-7.2c-0.4-0.2-0.9-0.3-1.4-0.3L51.2,77.7z"/>
		</g>
		<circle fill="#FCF174" cx="56.8" cy="77.3" r="4.1"/>
		<g>
			<path fill="#D76E27" d="M58.7,75.4l-4.3,0v0.5l-0.1,0L54.2,76l0.2,0.2l0,0h3.7c0,0,0.4,0,0.4,0.2v0.6c0,0,0,0.2-0.4,0.2
				c-0.4,0-3.7,0-3.7,0v2.2l-0.1,0l-0.1,0.1l0.2,0.2l1.2,0v-1.7h3.2c0,0,0.9,0.1,0.9-0.9v-1C59.7,76.2,59.8,75.4,58.7,75.4z"/>
			<g>
				<path fill="#FEBC12" d="M54.2,79.6l1.2,0v-1.7h3.2c0,0,0.9,0.1,0.9-0.9v-1c0,0,0.1-0.8-0.9-0.8l-4.3,0V76H58c0,0,0.4,0,0.4,0.2
					v0.6c0,0,0,0.2-0.4,0.2s-3.7,0-3.7,0V79.6z"/>
			</g>
		</g>
	</g>
	<g opacity="0.7">
		<g>
			<path fill="#FFFFFF" d="M52,76c-0.3,0-0.6-0.3-0.6-0.6V58.8c0-0.3,0.3-0.6,0.6-0.6c0.3,0,0.6,0.3,0.6,0.6v16.6
				C52.6,75.8,52.3,76,52,76z"/>
		</g>
		<g>
			<path fill="#FFFFFF" d="M55.2,57.4c-0.3,0-0.6-0.3-0.6-0.6v-2.6c0-0.3,0.3-0.6,0.6-0.6c0.3,0,0.6,0.3,0.6,0.6v2.6
				C55.8,57.2,55.5,57.4,55.2,57.4z"/>
		</g>
		<g>
			<path fill="#FFFFFF" d="M55.2,71.5c-0.3,0-0.6-0.3-0.6-0.6V59.2c0-0.3,0.3-0.6,0.6-0.6c0.3,0,0.6,0.3,0.6,0.6v11.7
				C55.8,71.2,55.5,71.5,55.2,71.5z"/>
		</g>
		<g>
			<path fill="#FFFFFF" d="M58.5,73.6c-0.3,0-0.6-0.3-0.6-0.6V56.3c0-0.3,0.3-0.6,0.6-0.6c0.3,0,0.6,0.3,0.6,0.6V73
				C59.1,73.3,58.8,73.6,58.5,73.6z"/>
		</g>
		<g>
			<path fill="#FFFFFF" d="M61.7,75.3c-0.3,0-0.6-0.3-0.6-0.6V64c0-0.3,0.3-0.6,0.6-0.6c0.3,0,0.6,0.3,0.6,0.6v10.7
				C62.3,75,62,75.3,61.7,75.3z"/>
		</g>
	</g>
	<g>
		<path fill="#42538A" d="M142.3,65l-28.8-5.6c-2.4-0.5-4-2.8-3.5-5.2l5.6-28.8c0.5-2.4,2.8-4,5.2-3.5l28.8,5.6
			c2.4,0.5,4,2.8,3.5,5.2l-5.6,28.8C147.1,63.9,144.8,65.4,142.3,65z"/>
		<path fill="#5E6CB3" d="M144.7,63.9l-29.1-5.5c-2.4-0.4-3.9-2.7-3.5-5.1l5.5-29.1c0.4-2.4,2.7-3.9,5.1-3.5l29.1,5.5
			c2.4,0.4,3.9,2.7,3.5,5.1l-5.5,29.1C149.3,62.8,147.1,64.3,144.7,63.9z"/>
		<g>
			<g>
				<path fill="#FFFFFF" d="M120.7,51.8l-0.2,0.8c0,0,0,0,0,0l-0.2,0c0,0,0,0,0,0l0.4-2.3c0,0,0,0,0,0l1,0.2c0.1,0,0.1,0,0.1,0
					c0,0,0.1,0,0.1,0.1c0,0,0.1,0.1,0.1,0.1c0,0,0.1,0.1,0.1,0.1l0,0c0,0,0,0.1,0.1,0.1c0,0,0,0.1,0,0.1c0,0,0,0.1,0,0.1
					c0,0,0,0.1,0,0.1c0,0,0,0.1,0,0.1c0,0,0,0.1-0.1,0.1c0,0-0.1,0.1-0.1,0.1c0,0-0.1,0.1-0.1,0.1c0,0-0.1,0.1-0.1,0.1
					c0,0-0.1,0-0.1,0c0,0-0.1,0-0.1,0c-0.1,0-0.1,0-0.2,0L120.7,51.8z M121.5,51.6C121.5,51.6,121.5,51.6,121.5,51.6
					c0.1,0,0.2,0,0.2,0c0,0,0.1,0,0.1,0c0,0,0.1,0,0.1-0.1c0,0,0,0,0.1-0.1c0,0,0-0.1,0.1-0.1c0,0,0-0.1,0-0.1c0,0,0-0.1,0-0.1
					s0-0.1,0-0.1c0,0,0-0.1,0-0.1c0,0,0-0.1,0-0.1c0,0,0-0.1,0-0.1s0-0.1-0.1-0.1c0,0,0,0-0.1-0.1c0,0-0.1,0-0.1,0c0,0-0.1,0-0.1,0
					l-0.7-0.1l-0.2,1L121.5,51.6z"/>
				<path fill="#FFFFFF" d="M124.2,52.5l-1-0.2l-0.5,0.7c0,0,0,0,0,0l-0.2,0c0,0,0,0,0,0c0,0,0,0,0,0l1.4-2.1c0,0,0,0,0,0l0.1,0
					c0,0,0,0,0,0l0.6,2.5c0,0,0,0,0,0c0,0,0,0,0,0l-0.2,0c0,0,0,0,0,0L124.2,52.5z M123.9,51.2l-0.6,0.9l0.8,0.2L123.9,51.2z"/>
				<path fill="#FFFFFF" d="M126.2,52.4l1-1c0,0,0,0,0,0l0.2,0c0,0,0,0,0,0c0,0,0,0,0,0l-1.2,1.2l-0.2,0.9c0,0,0,0,0,0l-0.2,0
					c0,0,0,0,0,0l0.2-0.9l-0.7-1.6c0,0,0,0,0,0c0,0,0,0,0,0l0.2,0c0,0,0,0,0,0L126.2,52.4z"/>
				<path fill="#FFFFFF" d="M130.2,52.5l-1.1,1.2c0,0,0,0,0,0l-0.1,0c0,0,0,0,0,0l-0.6-1.5l-0.3,1.8c0,0,0,0,0,0l-0.2,0c0,0,0,0,0,0
					l0.4-2.3c0,0,0,0,0,0l0.1,0c0,0,0,0,0,0l0.7,1.8l1.2-1.4c0,0,0,0,0,0l0.1,0c0,0,0,0,0,0l-0.4,2.3c0,0,0,0,0,0l-0.2,0
					c0,0,0,0,0,0L130.2,52.5L130.2,52.5z"/>
				<path fill="#FFFFFF" d="M132.7,54l-1-0.2l-0.5,0.7c0,0,0,0,0,0l-0.2,0c0,0,0,0,0,0c0,0,0,0,0,0l1.4-2.1c0,0,0,0,0,0l0.1,0
					c0,0,0,0,0,0l0.6,2.5c0,0,0,0,0,0c0,0,0,0,0,0l-0.2,0c0,0,0,0,0,0L132.7,54z M132.4,52.8l-0.6,0.9l0.8,0.2L132.4,52.8z"/>
				<path fill="#FFFFFF" d="M133.9,54.6l0.2-0.1c0,0,0,0,0,0l0,0.1c0,0.1,0.1,0.1,0.1,0.2c0,0,0.1,0.1,0.2,0.1
					c0.1,0,0.1,0.1,0.2,0.1c0.1,0,0.1,0,0.2,0.1c0,0,0.1,0,0.1,0c0,0,0.1,0,0.1,0c0,0,0.1,0,0.1,0c0,0,0.1,0,0.1,0c0,0,0.1,0,0.1,0
					c0,0,0.1,0,0.1-0.1s0-0.1,0.1-0.1c0,0,0-0.1,0-0.1c0,0,0-0.1,0-0.1c0,0,0-0.1,0-0.1c0,0,0-0.1-0.1-0.1c0,0,0,0-0.1-0.1
					c0,0-0.1,0-0.1-0.1c0,0-0.1,0-0.1,0c0,0-0.1,0-0.1,0c0,0-0.1,0-0.1,0c-0.1,0-0.1,0-0.2,0c0,0-0.1,0-0.1,0c0,0-0.1,0-0.1-0.1
					c0,0-0.1-0.1-0.1-0.1c0,0-0.1-0.1-0.1-0.1c0,0,0-0.1-0.1-0.1c0-0.1,0-0.1,0-0.2c0-0.1,0-0.1,0-0.2c0-0.1,0-0.1,0-0.2
					c0-0.1,0.1-0.1,0.1-0.1c0,0,0.1-0.1,0.1-0.1c0,0,0.1,0,0.1-0.1c0,0,0.1,0,0.1,0c0,0,0.1,0,0.1,0c0,0,0.1,0,0.1,0
					c0,0,0.1,0,0.1,0c0,0,0.1,0,0.1,0c0,0,0.1,0,0.1,0c0,0,0.1,0,0.1,0c0,0,0.1,0,0.1,0.1c0,0,0.1,0,0.1,0.1c0,0,0,0,0.1,0.1
					c0,0,0,0.1,0.1,0.1c0,0,0,0.1,0,0.1l0,0.1c0,0,0,0,0,0l0,0l-0.2,0c0,0,0,0,0,0l0,0c0,0,0,0,0-0.1c0,0,0,0,0-0.1c0,0,0,0-0.1-0.1
					c0,0,0,0-0.1,0l0,0c0,0,0,0-0.1,0c0,0,0,0-0.1,0c0,0-0.1,0-0.1,0c0,0,0,0-0.1,0c0,0-0.1,0-0.1,0c0,0-0.1,0-0.1,0
					c0,0-0.1,0-0.1,0c0,0-0.1,0-0.1,0c0,0-0.1,0-0.1,0c0,0,0,0-0.1,0.1c0,0,0,0.1-0.1,0.1c0,0,0,0.1,0,0.1c0,0,0,0.1,0,0.1
					c0,0,0,0.1,0,0.1c0,0,0,0.1,0,0.1c0,0,0,0,0.1,0.1c0,0,0.1,0,0.1,0.1c0,0,0.1,0,0.1,0c0,0,0.1,0,0.1,0c0,0,0.1,0,0.1,0
					c0.1,0,0.1,0,0.2,0c0.1,0,0.1,0,0.2,0c0,0,0.1,0,0.1,0.1c0,0,0.1,0.1,0.1,0.1c0,0,0.1,0.1,0.1,0.1c0,0,0.1,0.1,0.1,0.1
					c0,0.1,0,0.1,0,0.2c0,0.1,0,0.1,0,0.2c0,0.1,0,0.1-0.1,0.2l0,0c0,0.1-0.1,0.1-0.1,0.1c0,0-0.1,0.1-0.1,0.1c0,0-0.1,0.1-0.1,0.1
					c0,0-0.1,0-0.1,0c-0.1,0-0.1,0-0.2,0c-0.1,0-0.1,0-0.1,0c0,0-0.1,0-0.1,0c-0.1,0-0.2,0-0.3-0.1c-0.1,0-0.2-0.1-0.2-0.1
					c-0.1,0-0.1-0.1-0.2-0.1C134,54.8,133.9,54.8,133.9,54.6L133.9,54.6C133.8,54.7,133.8,54.6,133.9,54.6L133.9,54.6z"/>
				<path fill="#FFFFFF" d="M137.7,53.6l-0.4,2.1c0,0,0,0,0,0l-0.2,0c0,0,0,0,0,0l0.4-2.1l-0.8-0.2c0,0,0,0,0,0l0-0.2c0,0,0,0,0,0
					l1.9,0.3c0,0,0,0,0,0l0,0.2c0,0,0,0,0,0L137.7,53.6z"/>
				<path fill="#FFFFFF" d="M139.6,53.9l-0.1,0.8l1.2,0.2c0,0,0,0,0,0l0,0.2c0,0,0,0,0,0l-1.2-0.2l-0.2,0.8l1.4,0.3c0,0,0,0,0,0
					l0,0.2c0,0,0,0,0,0L139,56c0,0,0,0,0,0l0.4-2.3c0,0,0,0,0,0L141,54c0,0,0,0,0,0l0,0.2c0,0,0,0,0,0L139.6,53.9z"/>
				<path fill="#FFFFFF" d="M143.2,56.8C143.2,56.8,143.2,56.8,143.2,56.8C143.2,56.8,143.2,56.8,143.2,56.8l-0.3,0c0,0,0,0,0,0
					l-0.4-1l-0.7-0.1l-0.2,0.8c0,0,0,0,0,0l-0.2,0c0,0,0,0,0,0l0.4-2.3c0,0,0,0,0,0l1,0.2c0.1,0,0.1,0,0.1,0c0,0,0.1,0,0.1,0.1
					c0,0,0.1,0.1,0.1,0.1c0,0,0.1,0.1,0.1,0.1l0,0c0,0,0,0.1,0.1,0.1c0,0,0,0.1,0,0.1c0,0,0,0.1,0,0.1c0,0,0,0.1,0,0.1
					c0,0,0,0.1,0,0.1c0,0,0,0.1-0.1,0.1c0,0,0,0.1-0.1,0.1c0,0-0.1,0.1-0.1,0.1c0,0-0.1,0.1-0.1,0.1c0,0-0.1,0-0.1,0.1
					c0,0-0.1,0-0.1,0c0,0,0,0,0,0L143.2,56.8z M142.7,55.6C142.7,55.6,142.8,55.6,142.7,55.6c0.1,0,0.2,0,0.2,0c0,0,0.1,0,0.1,0
					c0,0,0.1,0,0.1-0.1c0,0,0,0,0.1-0.1c0,0,0-0.1,0.1-0.1l0,0c0,0,0-0.1,0-0.1c0,0,0-0.1,0-0.1c0,0,0-0.1,0-0.1c0,0,0-0.1,0-0.1
					c0,0,0-0.1,0-0.1c0,0,0-0.1,0-0.1c0,0,0-0.1-0.1-0.1c0,0,0,0-0.1-0.1c0,0-0.1,0-0.1,0c0,0-0.1,0-0.1,0l-0.7-0.1l-0.2,1
					L142.7,55.6z"/>
			</g>
			<path fill="#FFFFFF" d="M121.2,47.8l5,0.9l1.3-7.3l13.8,2.6c0,0,4.1,1,4.8-2.9l0.8-4.5c0,0,1.2-3.4-3.5-4.3l-18.8-3.5l-0.7,3.6
				l16.3,3c0,0,1.7,0.2,1.4,1.4l-0.5,2.7c0,0-0.2,0.9-1.8,0.6s-16.3-3-16.3-3L121.2,47.8z"/>
		</g>
	</g>
	<g>
		<circle fill="#6B1548" cx="73.2" cy="121.6" r="12.2"/>
		<circle fill="#9E1F63" cx="73.2" cy="119" r="12.2"/>
		<circle fill="#FED307" cx="73.2" cy="119" r="11.2"/>
		<g>
			<path fill="#FCAF17" d="M79.5,109.8L64,125.3c1.1,1.6,2.6,2.9,4.3,3.7l15-15C82.3,112.3,81.1,110.9,79.5,109.8z"/>
			<path fill="#FCAF17" d="M84.3,118c-0.1-0.6-0.1-1.1-0.3-1.7l-13.5,13.5c0.5,0.1,1.1,0.2,1.7,0.3L84.3,118z"/>
			<path fill="#FCAF17" d="M62,119.8c0.1,1,0.3,1.9,0.6,2.8l14.2-14.2c-0.9-0.3-1.8-0.5-2.8-0.6L62,119.8z"/>
		</g>
		<circle fill="#FCF174" cx="73.2" cy="119" r="8.1"/>
		<g>
			<path fill="#D76E27" d="M76.9,115.1l-8.5,0v1l-0.2,0l-0.2,0.3l0.4,0.4l0,0h7.3c0,0,0.7,0,0.7,0.5v1.2c0,0,0,0.4-0.7,0.4
				c-0.7,0-7.4,0-7.4,0v4.3l-0.2,0l-0.2,0.3l0.4,0.4l2.3,0v-3.3h6.2c0,0,1.9,0.1,1.9-1.7v-2C78.8,116.7,79,115.2,76.9,115.1z"/>
			<g>
				<path fill="#FEBC12" d="M68.1,123.4l2.3,0v-3.3h6.2c0,0,1.9,0.1,1.9-1.7v-2c0,0,0.2-1.6-1.9-1.6l-8.5,0v1.6h7.3
					c0,0,0.7,0,0.7,0.5v1.2c0,0,0,0.4-0.7,0.4s-7.4,0-7.4,0V123.4z"/>
			</g>
		</g>
	</g>
	<g opacity="0.7">
		<g>
			<path fill="#FFFFFF" d="M66.4,117.3c-0.5,0-0.9-0.4-0.9-0.9V91.4c0-0.5,0.4-0.9,0.9-0.9c0.5,0,0.9,0.4,0.9,0.9v24.9
				C67.3,116.9,66.9,117.3,66.4,117.3z"/>
		</g>
		<g>
			<path fill="#FFFFFF" d="M71.2,89.4c-0.5,0-0.9-0.4-0.9-0.9v-3.9c0-0.5,0.4-0.9,0.9-0.9c0.5,0,0.9,0.4,0.9,0.9v3.9
				C72.1,89,71.7,89.4,71.2,89.4z"/>
		</g>
		<g>
			<path fill="#FFFFFF" d="M71.2,110.5c-0.5,0-0.9-0.4-0.9-0.9V92c0-0.5,0.4-0.9,0.9-0.9c0.5,0,0.9,0.4,0.9,0.9v17.5
				C72.1,110,71.7,110.5,71.2,110.5z"/>
		</g>
		<g>
			<path fill="#FFFFFF" d="M76.2,113.7c-0.5,0-0.9-0.4-0.9-0.9V87.8c0-0.5,0.4-0.9,0.9-0.9c0.5,0,0.9,0.4,0.9,0.9v24.9
				C77.1,113.2,76.7,113.7,76.2,113.7z"/>
		</g>
		<g>
			<path fill="#FFFFFF" d="M81,116.2c-0.5,0-0.9-0.4-0.9-0.9v-16c0-0.5,0.4-0.9,0.9-0.9c0.5,0,0.9,0.4,0.9,0.9v16
				C81.9,115.8,81.5,116.2,81,116.2z"/>
		</g>
	</g>
	<g opacity="0.7">
		<g>
			<path fill="#FFFFFF" d="M161,35.9c-0.3,0-0.6-0.3-0.6-0.6V18.2c0-0.3,0.3-0.6,0.6-0.6c0.3,0,0.6,0.3,0.6,0.6v17.1
				C161.6,35.6,161.3,35.9,161,35.9z"/>
		</g>
		<g>
			<path fill="#FFFFFF" d="M164.3,16.8c-0.3,0-0.6-0.3-0.6-0.6v-2.7c0-0.3,0.3-0.6,0.6-0.6c0.3,0,0.6,0.3,0.6,0.6v2.7
				C164.9,16.5,164.6,16.8,164.3,16.8z"/>
		</g>
		<g>
			<path fill="#FFFFFF" d="M164.3,31.2c-0.3,0-0.6-0.3-0.6-0.6v-12c0-0.3,0.3-0.6,0.6-0.6c0.3,0,0.6,0.3,0.6,0.6v12
				C164.9,31,164.6,31.2,164.3,31.2z"/>
		</g>
		<g>
			<path fill="#FFFFFF" d="M167.7,33.4c-0.3,0-0.6-0.3-0.6-0.6V15.7c0-0.3,0.3-0.6,0.6-0.6c0.3,0,0.6,0.3,0.6,0.6v17.1
				C168.3,33.1,168,33.4,167.7,33.4z"/>
		</g>
		<g>
			<path fill="#FFFFFF" d="M171,35.2c-0.3,0-0.6-0.3-0.6-0.6v-11c0-0.3,0.3-0.6,0.6-0.6c0.3,0,0.6,0.3,0.6,0.6v11
				C171.6,34.9,171.3,35.2,171,35.2z"/>
		</g>
	</g>
	<g opacity="0.7">
		<g>
			<path fill="#FFFFFF" d="M68.4,40.3c-0.6,0-1-0.5-1-1V11.6c0-0.6,0.5-1,1-1c0.6,0,1,0.5,1,1v27.7C69.4,39.8,68.9,40.3,68.4,40.3z"
				/>
		</g>
		<g>
			<path fill="#FFFFFF" d="M73.7,9.4c-0.6,0-1-0.5-1-1V4c0-0.6,0.5-1,1-1c0.6,0,1,0.5,1,1v4.3C74.7,8.9,74.2,9.4,73.7,9.4z"/>
		</g>
		<g>
			<path fill="#FFFFFF" d="M73.7,32.7c-0.6,0-1-0.5-1-1V12.2c0-0.6,0.5-1,1-1c0.6,0,1,0.5,1,1v19.5C74.7,32.3,74.2,32.7,73.7,32.7z"
				/>
		</g>
		<g>
			<path fill="#FFFFFF" d="M79.2,36.3c-0.6,0-1-0.5-1-1V7.6c0-0.6,0.5-1,1-1c0.6,0,1,0.5,1,1v27.7C80.2,35.8,79.7,36.3,79.2,36.3z"
				/>
		</g>
		<g>
			<path fill="#FFFFFF" d="M84.5,39.1c-0.6,0-1-0.5-1-1V20.3c0-0.6,0.5-1,1-1c0.6,0,1,0.5,1,1v17.7C85.5,38.7,85.1,39.1,84.5,39.1z"
				/>
		</g>
	</g>
	<g>
		<g>
			<g>
				<g>
					<path fill="#9E1F63" d="M78.1,73.3c-0.4,0.2-1,0.2-1.9,0.1c-0.7-0.1-1.2-0.5-1.6-1.1c-0.5-0.7-0.6-1.6-0.3-2.5
						c0.2-0.6,0.5-1.2,1-1.7c0.5-0.5,1-0.9,1.6-1.1c0.7-0.3,1.4-0.4,2.2-0.4c0.9,0,1.6,0.1,2.3,0.2c0.6,0.2,1.1,0.5,1.5,0.9
						c0.5,0.5,0.8,1,1,1.7c0.9-0.5,1.9-1,3.1-1.3c0.8-0.2,1.5-0.4,2.3-0.5c1.1-0.1,2.3-0.1,3.8,0c3.1,0.2,5.4,1.1,7.1,2.7
						c0.3,0.3,0.7,0.7,1.1,1.2c0.3,0.4,0.7,1.1,1.3,2c0.3,0.6,0.6,1.2,0.8,1.9c0.2,0.8,0.4,1.5,0.5,2c0.1,0.5,0.1,1.2,0.1,1.9
						c0,1.5-0.3,3.1-0.8,4.7c-0.3,0.8-0.8,1.7-1.6,2.7c-0.7,0.9-1.8,1.6-3.3,2.2c-1.5,0.6-3.4,0.7-5.9,0.2l0.1-2
						c0.8,0.2,1.6,0.1,2.2-0.1c0.7-0.3,1.3-0.8,1.9-1.6s1-1.7,1.2-2.6c0.2-0.9,0.3-1.7,0.3-2.5c0-2.1-0.5-3.9-1.4-5.4
						c-0.9-1.5-2-2.5-3.2-3.1c-1-0.5-2.3-0.8-3.6-0.9c-0.8-0.1-1.6-0.1-2.4,0c-1,0.1-1.9,0.3-2.5,0.6c0.4,0,0.8,0,1.2,0
						c1.6,0.1,2.7,0.4,3.5,0.9c0.8,0.5,1.3,0.9,1.5,1.1c0.5,0.5,1,1.1,1.5,1.9c1,1.5,1.5,3.3,1.6,5.3c0,1.3-0.1,2.5-0.5,3.6
						c-0.2,0.8-0.6,1.6-1.1,2.4c-0.5,0.8-1.2,1.4-2.2,1.9s-1.9,0.6-2.8,0.6c-1.2-0.1-2.1-0.4-2.9-0.8c-0.8-0.5-1.2-1.1-1.3-1.8
						c-0.3,0.7-0.8,1.2-1.6,1.6c-0.9,0.4-2,0.5-3.2,0.4c-1.5-0.1-2.7-0.5-3.5-1c-0.3-0.2-0.7-0.7-1.3-1.5c-0.4-0.7-0.5-1.4-0.5-2.1
						c0-0.7,0.1-1.3,0.4-1.7c0,0,0.2-0.3,0.6-0.7c0.2-0.2,0.3-0.5,0.2-0.9c0-0.4-0.3-0.5-0.7-0.4c-0.3,0.2-0.7,0.4-1.2,0.8l0.2-2.6
						c0.4-0.4,1.1-1.1,2.2-2.2C76.4,74.7,77.5,73.8,78.1,73.3z M76,78.2c0.5,0,0.9,0.2,1.2,0.7c0.2,0.2,0.2,0.6,0.3,1l-0.1,0.9
						c0,0.5,0.1,0.9,0.3,1c0.3,0.4,0.6,0.6,1.1,0.8c0.4,0.1,0.8,0.2,1.2,0.2c0.6,0,1.2-0.1,1.8-0.5c0.6-0.4,0.9-1.1,1-2.1
						c0-0.4,0-0.9-0.1-1.4l2.7,0.2c-0.1,0.4-0.1,0.8-0.2,1.2c-0.1,1,0.1,1.8,0.6,2.4c0.4,0.6,1.2,0.9,2.2,0.8c0.6,0,1.1-0.1,1.4-0.3
						c0.3-0.2,0.6-0.4,0.9-0.7c0.5-0.5,0.7-1.1,0.8-1.9c0.2-2.7-0.7-4.8-2.8-6.2c-0.5-0.4-1.1-0.6-1.9-0.9c-1-0.3-2-0.4-3.1-0.3
						c-0.4,0.1-0.8,0.2-1.2,0.3c-0.6,0.3-1.4,0.8-2.3,1.5c-0.3,0.2-1,0.9-2.3,2C77.1,77.1,76.7,77.6,76,78.2z M81,70.9
						c0.2-0.3,0.4-0.5,0.4-0.7c0-0.7-0.3-1.2-0.9-1.3c-0.4-0.1-0.7-0.1-1.1-0.1c-0.4,0.1-0.7,0.2-0.7,0.3c0.6,0.1,1,0.6,1.1,1.6
						c0.1,0.6-0.1,1.1-0.5,1.6C79.9,71.8,80.5,71.3,81,70.9z"/>
					<g>
						<path fill="#9E1F63" d="M77.5,70.9c0.5-0.6,1.1-1.3,1.6-1.9c1.5-0.3,2.4,0.3,2.7,1.6c0.6,1.3,2.3,1.5,3.4,0.9
							c4.4-2.2,11.5-2.7,14.5,1.9c3.7,5.7,1.5,14.3-6.6,13.2c0.6,0.8,1.2,1.6,1.8,2.4c0-0.7,0.1-1.4,0.1-2c-0.8,0.8-1.7,1.7-2.5,2.5
							c7.1,0.6,8.6-7.5,7.6-13c-1.3-7.2-9.7-9.6-15.8-7.7c-2.6,0.8-2.2,4.9,0.7,4.9c2.4,0,4.2,0.6,5.7,2.6c0.8,1.2,1.2,2.6,1.2,4.1
							c0.4,3.7-1.6,5.2-6.2,4.6c-0.8-1.8-3.4-1.4-4.3,0c-1.2,1.9-5.3,0.6-5.5-1.4c-0.1-0.5,1-2,1.2-2.6c0.3-1-0.2-2.3-1.1-2.8
							c-0.2-0.1-0.5-0.3-0.7-0.4c-0.8-0.4-1.7-0.5-2.5,0c-0.4,0.3-0.8,0.5-1.2,0.8c1.2,0.7,2.5,1.4,3.7,2.1c0-0.4,0.1-0.9,0.1-1.3
							c0.1-1.2,0.1-1.2-0.1-0.1c1.4-1.5,3.1-2.9,4.8-4.2c2.5-2-1.1-5.5-3.5-3.5c-3.6,3-5.9,4.5-6.2,9.1c-0.1,1.9,2.2,3.1,3.7,2.1
							c0.4-0.3,0.8-0.5,1.2-0.8c-0.8,0-1.7,0-2.5,0c0.2,0.1,0.5,0.3,0.7,0.4c-0.4-0.9-0.8-1.9-1.1-2.8c-0.4,1.4-1.2,2.4-1.3,3.9
							c-0.2,2.1,1.1,4,2.6,5.4c3.3,3.2,9.8,2.2,12.2-1.4c-1.4,0-2.9,0-4.3,0c1.2,2.9,5.4,4.7,8.5,3.6c4.1-1.4,5.9-4.1,6.8-8.2
							c1.6-7.6-4.2-14.2-11.7-14.2c0.2,1.6,0.4,3.3,0.7,4.9c2.1-0.7,4-0.6,6.1-0.1c3.6,0.9,6.2,11.4,0.8,10.9
							c-1.4-0.1-2.4,1.2-2.5,2.5c0,0.7-0.1,1.4-0.1,2c-0.1,1,0.8,2.3,1.8,2.4c10.6,1.5,16.6-6.7,14-16.9
							c-2.6-10.2-15.1-11.4-23.1-7.4c1.1,0.3,2.3,0.6,3.4,0.9c-2.3-5-8.8-5-12.6-1.7c-4.7,4.1-0.1,10.5,5.3,9.3
							C81.9,75,80.6,70.2,77.5,70.9z"/>
						<path fill="#9E1F63" d="M75.4,80.6c-0.6-0.2-0.4-0.8-0.4,0.1c0,0.7,0.2,1.7,0.6,2.3c0.8,1.3,2.4,2,3.8,2.1
							c4,0.5,6.2-2.8,5.8-6.5c-0.8,0.8-1.7,1.7-2.5,2.5c0.9,0.1,1.8,0.1,2.7,0.2c-0.8-1-1.6-2.1-2.4-3.1c-0.7,4.2,1,8,5.8,7.5
							c4.3-0.4,5.1-5,4.4-8.5c-0.8-4.3-5-6.4-8.9-6.7c-3.9-0.4-7.4,3.5-10,5.9c-2.3,2.2,1.2,5.7,3.5,3.5c1.7-1.6,4-4.4,6.5-4.5
							c1.7-0.1,3,0.9,3.8,2.2c0.4,0.7,0.5,1.9,0.3,2.7c-0.2,1.2-0.8-0.5-0.7-0.9c0.3-1.7-0.7-3-2.4-3.1c-0.9-0.1-1.8-0.1-2.7-0.2
							c-1.3-0.1-2.6,1.2-2.5,2.5c0.1,0.6-0.4,1.6-0.3,2.1c-0.1-0.3,0-1.2,0-1.5c-0.3-1.8-1.5-3-3.2-3.4
							C73.6,74.9,72.3,79.7,75.4,80.6z"/>
						<path fill="#9E1F63" d="M83.2,72.2c1.1-1.4,1-3.6-0.5-4.8c-1.7-1.3-4.1-1.4-5.8,0c-1.5,1.2-0.6,3.7,1.1,4.2
							c-0.1,0-0.8-0.6-0.5-0.3c-0.1-0.1-0.4-0.8-0.3-0.3c0.2,0.6,0-0.4,0,0.2c0-0.2,0-0.3,0.1-0.4c-0.1,0.1-0.2,0.3-0.3,0.4
							c-0.7,0.9-0.3,2.3,0.4,3c1,1,2.5,0.9,3.5,0c0.6-0.5,1.1-1,1.7-1.4c1.1-0.8,0.9-2.7,0-3.5c-1-1-2.4-0.8-3.5,0
							c-0.6,0.5-1.2,0.9-1.7,1.4c1.3,1,2.6,2,3.9,3c1.7-2.2,0.7-6.1-2.1-6.9c0.4,1.4,0.7,2.8,1.1,4.2c-0.8,0.7-1,0.5-0.4,0.3
							c-0.2,0.1-0.3,0.1-0.5,0c0.3,0.1,0.3,0.1,0-0.1c-0.4-0.2-0.6-0.7-0.6-1.1c0.3-0.9,0.4-1.2,0.2-0.8c-0.1,0.1-0.2,0.2-0.2,0.3
							c-0.8,1.1-0.2,2.8,0.9,3.4C81,73.8,82.4,73.2,83.2,72.2z"/>
					</g>
				</g>
				<g>
					<path fill="#9E1F63" d="M115.2,62.1c-2.4,0.2-4.4,0.8-6,1.8c-1,0.7-1.5,1.4-1.7,2.3l-2.4,0.3c0-1.2,0.7-2.3,1.9-3.5
						c1.7-1.6,4.3-2.5,7.9-2.9c3.1-0.3,5.6,0,7.5,1c1.7,0.9,3.1,2.3,4.3,4.2c1.2,1.9,1.9,4.2,2.2,7c0.2,1.8,0,3.5-0.5,5.3
						c-0.6,2.2-1.8,4-3.6,5.2c-1.5,1.1-3.8,1.8-6.9,2.2c-4.3,0.6-7.4,0.1-9.5-1.5c-1.5-1.2-2.4-2.6-2.8-4.2
						c-0.4-1.7-0.3-3.2,0.2-4.4c0.6-1.2,1.4-2,2.4-2.5c-0.7,0.1-1.4-0.1-1.9-0.5c-0.5-0.4-0.8-1-0.9-1.7c-0.1-0.6,0.1-1.3,0.5-1.8
						c0.5-0.8,1.2-1.3,2.2-1.6c0.7-0.2,1.8-0.4,3.4-0.6c2-0.2,3.4,0.1,4.4,0.8c0.7,0.6,1.3,1.4,1.7,2.4c0.2,0.6,0.4,1.6,0.5,2.8
						l-4.9,0.5c-1.7,0.2-2.9,0.7-3.6,1.5c-0.5,0.6-0.7,1.3-0.6,2.3c0,0.4,0.1,0.7,0.3,1c0.5,0.9,1.7,1.6,3.4,2
						c0.8,0.2,2.3,0.2,4.6,0c1.8-0.1,3.3-0.6,4.5-1.4c2.1-1.4,3.2-3.4,3.2-6.1c0-1.6-0.2-3.1-0.6-4.6c-0.3-0.9-0.6-1.6-1-2.2
						C121.7,63,119,61.8,115.2,62.1z M112.5,71.3l3.3-0.3c-0.1-0.8-0.4-1.4-0.9-1.8c-0.8-0.7-2.1-0.9-3.7-0.5
						c0.4,0.2,0.6,0.6,0.6,1.1c0.1,0.8-0.2,1.4-0.7,1.7C111.4,71.4,111.9,71.4,112.5,71.3z"/>
					<g>
						<path fill="#9E1F63" d="M115.2,59.6c-3.9,0.5-8.1,1.4-9.8,5.3c0.7-0.4,1.4-0.8,2.1-1.2c-0.8,0.1-1.6,0.2-2.4,0.3
							c0.8,1,1.6,2.1,2.4,3.1c0.9-4.7,8.1-5,11.7-4.5c5.4,0.7,7.1,6.9,7.3,11.5c0.2,4.9-3.1,7.3-7.4,8.3c-2.1,0.5-4.5,0.6-6.7,0.2
							c-2.9-0.5-7-5.3-2.8-7.9c2.2-1.3,1.2-4.5-1.3-4.6c0.9-0.9,2-1.4,3.3-1.2c2.2-0.5,3.5,0.7,4.1,3.6c0.8-0.8,1.7-1.7,2.5-2.5
							c-4.1,0.4-9,0.2-11.2,4.2c-3.7,6.6,6.4,8.3,10.3,8c6.7-0.4,10.4-5.1,10.2-11.6C127.4,63.6,122,59.5,115.2,59.6
							c-3.2,0.1-3.2,5,0,5c4-0.1,6.3,1.3,7.3,5.3c1.3,5.1-2.2,7.3-6.7,7.5c-1.9,0.1-5.1-1.6-1.7-1.9c1.4-0.1,2.8-0.3,4.2-0.4
							c1.2-0.1,2.6-1,2.5-2.5c-0.8-7.7-6-9.7-13.2-7.9c-6.3,1.6-5.5,10.1,0.8,10.5c-0.4-1.5-0.8-3.1-1.3-4.6
							c-6.7,4.1-4.4,13.5,2.1,16.4c6.9,3.1,17.5,0.2,20.9-6.7c3.7-7.5,0-18.4-7.7-21.7c-6.3-2.7-18.3-0.5-19.8,7.3
							c-0.3,1.4,0.7,3.3,2.4,3.1c0.8-0.1,1.6-0.2,2.4-0.3c0.8-0.1,1.8-0.4,2.1-1.2c1.4-1.9,3.2-2.8,5.5-2.9
							C118.4,64.2,118.4,59.2,115.2,59.6z"/>
						<path fill="#9E1F63" d="M112.5,73.8c1.1-0.1,2.2-0.2,3.3-0.3c1.7-0.2,2.6-1.4,2.4-3.1c-0.2-1.6-1.2-2.9-2.6-3.7
							c-1.5-0.9-3.4-0.8-5-0.4c-1.7,0.4-2.5,3-1.1,4.2c0.5,0.4-0.1-0.1-0.1-0.4c0-0.3,0.3-0.6,0.5-0.7c-0.9,0.7-1.5,1.6-1.1,2.8
							c0.3,1,1.3,1.9,2.4,1.8C111.5,73.9,112,73.9,112.5,73.8c1.3-0.1,2.5-1,2.5-2.5c0-1.3-1.1-2.6-2.5-2.5c-0.5,0-1,0.1-1.4,0.1
							c0.4,1.5,0.8,3.1,1.3,4.6c1.1-0.9,1.9-1.9,2-3.3c0.1-1.3-0.3-2.6-1.3-3.4c-0.4,1.4-0.7,2.8-1.1,4.2c0.3-0.1,0.4-0.1,0.8-0.1
							c0.3,0,0.4,0,0.1,0c0.2,0,0.3,0.1,0.5,0.1c-0.2-0.1-0.2-0.1,0,0c-0.2-0.2-0.2-0.2,0,0.1c-0.1-0.2-0.1-0.1,0,0.1
							c-0.2-0.4,0,0.4,0,0.4c0.8-1,1.6-2.1,2.4-3.1c-1.1,0.1-2.2,0.2-3.3,0.3c-1.3,0.1-2.5,1-2.5,2.5
							C110,72.6,111.1,73.9,112.5,73.8z"/>
					</g>
				</g>
				<g>
					<path fill="#9E1F63" d="M128.4,77l1.5,14.3l-18.5,1.9c-2.2,0.2-3.5-0.4-4.1-2c-0.3-0.8-0.4-1.6-0.4-2.4c0-0.9,0.3-1.6,0.8-2.2
						l2.1-0.2c-0.2,0.2-0.3,0.3-0.4,0.5c-0.2,0.2-0.2,0.4-0.2,0.7c0,0.3,0.2,0.6,0.6,0.7c0.2,0.1,0.6,0.1,1.1,0l16.5-1.7l-0.8-7.6
						C127.1,78.6,127.7,77.9,128.4,77z"/>
					<g>
						<path fill="#9E1F63" d="M125.9,77c0.5,4.8,1,9.6,1.5,14.3c0.8-0.8,1.7-1.7,2.5-2.5c-3.2,0.3-6.5,0.7-9.7,1
							c-0.7,0.1-12.6,2.4-10.3-2c-0.7,0.4-1.4,0.8-2.1,1.2c0.7-0.1,1.4-0.1,2.1-0.2c-0.6-1.4-1.2-2.8-1.8-4.2
							c-1.5,1.8-1.9,4.3,0.5,5.7c1.3,0.8,3.5,0.2,4.9,0.1c4.6-0.5,9.3-1,13.9-1.4c1.2-0.1,2.6-1,2.5-2.5c-0.1-1.4-0.3-2.8-0.4-4.3
							c-0.1-0.8-0.2-1.6-0.2-2.3c-0.2-1.7-0.7,0.9,1-1.2c2-2.5-1.5-6-3.5-3.5c-1.8,2.2-2.7,2.7-2.4,5.4c0.2,2,0.4,3.9,0.6,5.9
							c0.8-0.8,1.7-1.7,2.5-2.5c-2.7,0.3-5.5,0.6-8.2,0.8c-1.1,0.1-7.7,1.3-8.1,0.9c0.2,0.8,0.4,1.6,0.6,2.4c0,0,0,0,0,0
							c1.2-1.5,0.6-4.5-1.8-4.2c-3.8,0.4-6.4,2.4-5.2,6.8c0.9,3.7,3.5,5.3,7.3,4.9c6-0.6,12-1.2,18-1.9c1.2-0.1,2.6-1,2.5-2.5
							c-0.5-4.8-1-9.6-1.5-14.3C130.6,73.8,125.6,73.8,125.9,77z"/>
					</g>
				</g>
				<g>
					<path fill="#9E1F63" d="M152.8,75c0.1,2.8-0.8,5.1-2.4,6.8c-2,2.1-4.8,3.1-8.4,3.2c-3,0.1-5.3-0.3-6.8-1.2
						c-2.3-1.3-3.7-3-4.5-5.1c-0.6-1.7-0.7-3.5-0.4-5.4c0.2-1.4,0.7-2.6,1.3-3.6s1.4-1.8,2.3-2.4c1-0.7,2.5-1.5,4.5-2.3
						c0.9-0.3,1.8-0.9,2.7-1.6c0.5-0.4,1-0.8,1.5-1.4c0.9-1,1.4-1.8,1.5-2.6l6-0.1c-0.1,0.8-0.5,1.7-1.3,2.7c-0.9,1-1.9,1.9-3.1,2.5
						c-0.8,0.4-1.8,0.7-3,0.9c2.2,0.1,4.2,0.5,5.8,1.5c1.1,0.6,2,1.4,2.7,2.4C152.2,70.9,152.8,72.8,152.8,75z M141.5,67.1
						c-1.9,0-3.5,0.4-4.7,1c-2.1,1.1-3.1,2.9-3,5.3c0,0.3,0,0.6,0.1,0.8c0.3,1.9,1.4,3.4,3.4,4.4c1.1,0.5,2.6,0.8,4.5,0.8
						c2,0,3.6-0.5,4.7-1.4c1.5-1.2,2.3-2.6,2.4-4.3c0.1-1.2-0.1-2.3-0.6-3.3c-0.5-1-1.2-1.8-2.1-2.3C144.9,67.4,143.3,67,141.5,67.1
						z"/>
					<g>
						<path fill="#9E1F63" d="M150.4,75c-0.5,11.3-20.1,9.8-17.4-2.4c0.9-4.1,6.4-5.1,9.3-7.2c2-1.4,3.3-3.3,4.1-5.5
							c-0.8,0.6-1.6,1.2-2.4,1.8c2,0,4-0.1,6-0.1c-0.8-1-1.6-2.1-2.4-3.1c-0.8,2.8-3.2,3.8-5.7,4.4c-2.9,0.7-2,4.7,0.7,4.9
							C147.2,68.1,149.9,70.2,150.4,75c0.3,3.2,5.3,3.2,5,0c-0.7-7.6-5.3-11.7-12.7-12.2c0.2,1.6,0.4,3.3,0.7,4.9
							c4.3-1,7.9-3.4,9.2-7.8c0.4-1.5-0.8-3.2-2.4-3.1c-2,0-4,0.1-6,0.1c-1.2,0-2,0.8-2.4,1.8c-2.2,5.7-10.7,5.2-13,11.4
							c-2,5.4-0.8,10.9,3.5,14.7c3.9,3.4,10,3.3,14.7,2c5.5-1.4,8.2-6.5,8.5-11.8C155.5,71.8,150.5,71.8,150.4,75z"/>
						<path fill="#9E1F63" d="M141.5,64.6c-4.7,0.2-10,2.5-10.2,7.9c-0.2,5.7,4,8.9,9.3,9.3c5.4,0.5,10-2.7,10.7-8.1
							C152.1,67.8,146.5,64.7,141.5,64.6c-3.2-0.1-3.2,4.9,0,5c2.8,0.1,4.9,1,4.9,4.1c0,2.9-3.7,3.2-5.7,3.2c-2.6,0-4.8-1.7-4.3-4.5
							c0.4-2.4,3.3-2.7,5.2-2.8C144.7,69.4,144.7,64.4,141.5,64.6z"/>
					</g>
				</g>
				<g>
					<path fill="#9E1F63" d="M156.2,72.7c-1,1-1.7,1.9-2,2.7c-0.2,0.5-0.3,1.1-0.3,1.6c0,0.5,0.1,1,0.4,1.4c0.5,0.8,1.4,1.2,2.6,1.2
						c1,0,1.7-0.3,2.2-0.7c0.5-0.5,0.8-1,0.9-1.7c0.1-0.8-0.1-1.6-0.5-2.2l2.1,0c0.4,0.8,0.7,1.6,0.9,2.6c0.1,0.3,0.1,0.7,0.1,1.1
						c0,1.3-0.2,2.4-0.7,3.2c-1,1.8-2.8,2.7-5.3,2.7c-1.9,0-3.4-0.5-4.5-1.7c-0.9-0.9-1.4-2.1-1.5-3.7c-0.1-1.2,0-2.2,0.4-3.2
						c0.4-0.8,1-1.8,2-2.8c0.9-0.9,1.7-1.6,2.4-2.1l-4.5,0.1l-0.1-3.4l10.9-0.2l0,1.9C159.4,70.2,157.6,71.4,156.2,72.7z"/>
					<g>
						<path fill="#9E1F63" d="M154.4,71c-2.6,2.7-5.3,9.2,0.1,10.8c5.3,1.6,9.5-3,6.9-8c-0.7,1.2-1.4,2.5-2.1,3.7c0.7,0,1.4,0,2.1,0
							c-0.7-0.4-1.4-0.8-2.1-1.2c1.7,3.6-0.1,6.4-4.2,5.6c-5-1-0.6-7.2,1.5-8.6c2-1.3,1.3-4.7-1.3-4.6c-1.5,0-3,0.1-4.5,0.1
							c0.8,0.8,1.7,1.7,2.5,2.5c0-1.1,0-2.3-0.1-3.4c-0.8,0.8-1.7,1.7-2.5,2.5c3.6-0.1,7.3-0.1,10.9-0.2c-0.8-0.8-1.7-1.7-2.5-2.5
							c0,0.6,0,1.3,0,1.9c0.6-0.8,1.2-1.6,1.8-2.4C158.6,68,156.4,69.2,154.4,71c-2.4,2.1,1.1,5.6,3.5,3.5c1.3-1.2,2.8-2,4.4-2.7
							c1-0.4,1.8-1.2,1.8-2.4c0-0.6,0-1.3,0-1.9c0-1.3-1.1-2.5-2.5-2.5c-3.6,0.1-7.3,0.1-10.9,0.2c-1.3,0-2.5,1.1-2.5,2.5
							c0,1.1,0,2.3,0.1,3.4c0,1.3,1.1,2.5,2.5,2.5c1.5,0,3-0.1,4.5-0.1c-0.4-1.5-0.8-3.1-1.3-4.6c-2.9,1.9-6.2,5.3-6.1,9.1
							c0.1,3.5,1.4,7,4.9,8.3c3.5,1.3,7.6,0.7,10.2-2c2.8-2.9,2-7.3,0.5-10.6c-0.4-0.8-1.3-1.2-2.1-1.2c-0.7,0-1.4,0-2.1,0
							c-2,0-3,2.1-2.1,3.7c-0.3,1.3-0.5,1.2-0.6-0.1c0.4-0.6,0.8-1.1,1.3-1.6C160.2,72.2,156.7,68.7,154.4,71z"/>
					</g>
				</g>
				<g>
					<path fill="#9E1F63" d="M166.2,71.4c-0.4,0.2-0.8,0.4-1.2,0.4c-0.7,0.1-1.3-0.1-1.8-0.5c-0.5-0.4-0.8-1-0.9-1.7
						c0-0.2,0-0.5,0-0.7c0.2-2.1,1.5-3.3,3.8-3.7c1.3-0.2,2.2-0.3,2.8-0.1c1,0.4,1.6,0.9,1.8,1.5c0.6-0.6,1.5-1.2,2.7-1.8
						c1.3-0.7,2.9-1.1,5-1.3c2.8-0.2,5,0.2,6.6,1.2c2.4,1.5,3.8,3.8,4.2,6.9c0.4,2.9-0.1,5.2-1.4,7c-1.4,1.9-4,3.1-7.9,3.4l-0.2-1.8
						c2.2-0.2,3.6-1.1,4.4-2.7c0.6-1.1,0.7-2.6,0.4-4.5c-0.3-1.8-1.1-3.3-2.5-4.5c-0.8-0.7-1.8-1.2-3.1-1.5c-1.3-0.3-2.5-0.3-3.8,0
						c-1.3,0.3-2.4,0.7-3.2,1.3c0.3-0.1,0.5-0.1,0.8-0.2c1.2-0.2,2.2-0.1,3.1,0.3c0.7,0.3,1.2,0.4,1.3,0.5c0.8,0.4,1.5,0.9,2,1.5
						c0.9,1.1,1.5,2.3,1.7,3.8c0.3,2.1-0.1,3.8-1,5.1c-1.2,1.8-3.5,3-6.8,3.5c-4.7,0.8-7.5-0.1-8.5-2.5c-0.1-0.2-0.1-0.4-0.2-0.6
						c-0.1-0.6,0.1-1.4,0.6-2.3c0.2-0.3,0.1-0.6-0.1-0.7c-0.1,0-0.2,0-0.3,0c-0.3,0-0.7,0.4-1.3,1.2l-0.3-2.2
						C163.9,74.2,165,72.7,166.2,71.4z M165.6,75.1c0.1,0,0.2,0,0.4,0c0.5-0.1,0.9,0.3,1,1.2c0.1,1,1,1.6,2.6,1.8
						c1.4,0.2,2.8,0,4.3-0.6c1.9-0.8,2.9-2,2.9-3.7c0-0.9-0.3-1.8-0.9-2.6c-0.5-0.7-1.2-1.1-2-1.4c-0.8-0.3-1.8-0.3-2.9,0
						c-0.6,0.1-1.1,0.4-1.6,0.8c-0.3,0.3-0.9,0.8-1.7,1.7C167.1,73.2,166.4,74.1,165.6,75.1z M169,68.2c-0.1-1.1-0.9-1.5-2.1-1.2
						c-0.2,0.1-0.6,0.2-1.1,0.5c0.9,0.1,1.4,0.7,1.5,1.6c0,0.4,0,0.7-0.1,1.1L169,68.2z"/>
					<g>
						<path fill="#9E1F63" d="M165.6,69c0.9-1.6,1.9-1.9,2.9-1c0.7,1,2.3,1.7,3.4,0.9c3.3-2.5,7.9-3.9,11.8-1.9
							c3.1,1.6,3.4,5.8,2.8,8.7c-0.6,3-4.1,3.7-6.6,3.9c0.8,0.8,1.7,1.7,2.5,2.5c-0.1-0.6-0.2-1.2-0.2-1.8c-0.6,0.8-1.2,1.6-1.8,2.4
							c5.8-0.9,8.4-6.7,6-12.1c-2.8-6.2-10-7.7-15.7-4.4c-2.5,1.5-0.8,5.1,1.9,4.5c2.2-0.5,3.9,0.4,5.2,2.1c2.6,3.6-0.9,6.4-3.9,7.3
							c-1.9,0.6-4,0.7-5.9,0.3c-0.7-0.1-0.6-3.5-0.8-4.4c-0.2-1.2-1.4-1.7-2.4-1.8c-1.4-0.2-2.5,0.9-3.4,1.9
							c1.4,0.6,2.8,1.2,4.2,1.8c-0.3-2.3,0.7-2.9,2.4-4.8c2.1-2.4-1.4-5.9-3.5-3.5c-2.4,2.7-4.3,4.6-3.8,8.3c0.3,2,2.6,3.5,4.2,1.8
							c0-0.1-0.1-0.3-0.1-0.4c-0.8-0.6-1.6-1.2-2.4-1.8c0.2,1.3-0.9,2.6,0,4.2c0.7,1.5,1.8,2.6,3.3,3.2c4.2,1.7,10.8,0.8,14.3-2.1
							c7.8-6.6,0.9-18.9-8.8-16.8c0.6,1.5,1.3,3,1.9,4.5c2.1-1.3,4.4-1.5,6.8-0.4c3.4,1.7,2.8,7.2-0.9,7.8c-1,0.2-2,1.4-1.8,2.4
							c0.1,0.6,0.2,1.2,0.2,1.8c0.2,1.2,1,2.7,2.5,2.5c9-1,14-7.2,11-16.3c-3-9.1-15.1-8.5-21.4-3.7c1.1,0.3,2.3,0.6,3.4,0.9
							c-2.9-4.5-10-3.4-12.4,1.1c-2.4,4.5,2,8.9,6.5,7.2C169.9,72.7,168.6,67.8,165.6,69z"/>
						<path fill="#9E1F63" d="M165.6,77.6c0.9,0,0.5-0.3-1-0.6c0.1,0.4,0.2,0.7,0.4,1c0.3,0.6,0.8,1.1,1.4,1.6
							c1.5,1.1,3.6,1.2,5.4,1.1c3.4-0.3,7.3-2.4,7.6-6.2c0.3-4-2.8-6.9-6.6-7.1c-4.1-0.3-6.6,3.3-8.8,6.1c-1.9,2.5,1.5,6,3.5,3.5
							c1.1-1.5,2.3-2.9,3.6-4.2c1.2-1.2,4.4,0.2,3.1,1.8c-0.6,0.7-1.6,0.9-2.4,1.1c-0.5,0.1-1,0.1-1.5,0.1c-0.2,0-0.4-0.1-0.7-0.1
							c-0.5-0.2-0.5-0.2-0.2,0c-0.5-1.8-1.7-3.3-3.8-3C162.5,73.1,162.4,78,165.6,77.6z"/>
						<path fill="#9E1F63" d="M171.4,67.6c-0.2-1.4-1.3-2.7-2.7-3c-1.4-0.4-2.9,0.1-4.1,0.8c-0.8,0.4-1.2,1.3-1.2,2.1
							c0,1,0.8,2.2,1.8,2.4c0.2,0,0.7,0.2,0-0.1c0.2,0.1,0.2,0.1-0.2-0.2c0.2,0.2,0.1,0.1-0.1-0.2c0.1,0.2,0.1,0.2-0.1-0.2
							c0,0.1,0.1,0.2,0.1,0.3c0-0.3-0.1-0.4,0-0.1c0.1-0.3,0.1-0.3,0,0c-0.3,1.1,0.2,2.2,1.1,2.8c0.9,0.5,2.3,0.4,3-0.4
							c0.6-0.7,1.2-1.3,1.8-2c0.9-1,1-2.5,0-3.5c-0.9-0.9-2.6-1-3.5,0c-0.6,0.7-1.2,1.3-1.8,2c1.4,0.8,2.8,1.6,4.2,2.4
							c0.6-2.4-0.4-5.3-3.1-5.8c0.2,1.5,0.4,3,0.6,4.5c0.1-0.1,0.3-0.1,0.4-0.2c0.6-0.3-0.5,0.2,0,0c0.1,0,0.2-0.1,0.3-0.1
							c0.6-0.1-0.5,0,0,0c-0.4-0.1-0.5-0.1-0.3,0c-0.1-0.1-0.2-0.1-0.4-0.2c-0.3-0.3-0.4-0.3-0.2-0.2c-0.2-0.2-0.3-0.4-0.4-0.6
							c0.1,0.1,0.1,0.3,0.1,0.5c0.2,1.3,1.9,2.1,3.1,1.7C171,70.3,171.6,68.9,171.4,67.6z"/>
					</g>
				</g>
				<g>
					<path fill="#9E1F63" d="M179.9,59.9c-0.1-0.6-0.3-1-0.7-1.2c-0.4-0.2-0.8-0.1-1.2,0.1c-0.4,0.2-0.7,0.5-0.9,0.9l-0.4-3.1
						c0.3-0.4,0.7-0.7,1.2-1c0.6-0.3,1.2-0.3,1.9-0.1c0.4,0.1,0.7,0.4,1,0.8c0.2-0.3,0.5-0.6,0.8-0.9c0.5-0.3,1-0.5,1.6-0.6
						c0.5-0.1,1-0.1,1.6,0c0.9,0.1,1.6,0.6,2.2,1.4c0.2,0.4,0.4,0.9,0.5,1.5c0.2,1.2-0.3,2.2-1.4,3c-0.5,0.4-1.2,0.6-2,0.6
						c-0.9,0.1-1.5,0-2-0.3l0.5,3.8c-0.9-0.3-1.6-0.5-2-0.5L179.9,59.9z M181.7,58.7c0,0.4,0.2,0.6,0.5,0.9c0.3,0.2,0.6,0.2,1,0.1
						c0.4-0.1,0.6-0.4,0.7-0.7c0-0.2,0-0.5,0-0.9c0-0.3-0.1-0.5-0.3-0.7c-0.2-0.2-0.4-0.3-0.6-0.4c-0.4-0.1-0.7,0-1,0.3
						c-0.3,0.3-0.4,0.5-0.3,0.8L181.7,58.7z"/>
					<g>
						<path fill="#9E1F63" d="M182.3,59.2c-0.9-3.9-5.4-3.9-7.4-0.8c1.5,0.4,3.1,0.8,4.6,1.3c-0.1-1-0.3-2.1-0.4-3.1
							c-0.2,0.6-0.5,1.2-0.7,1.8c0.1-0.4,0.3-0.5,0.6-0.3c1.2,1.3,3,0.7,3.9-0.5c0.6-0.7,2.2-0.5,2.1,0.6c-0.1,0.9-1.8,0.7-2.3,0.4
							c-1.4-0.6-3.3,0.9-3.1,2.4c0.2,1.3,0.3,2.6,0.5,3.8c1-0.8,2.1-1.6,3.1-2.4c-0.9-0.3-1.8-0.5-2.7-0.6c0.8,0.8,1.7,1.7,2.5,2.5
							c-0.2-1.5-0.4-2.9-0.6-4.4c-0.4-3.1-5.4-3.2-5,0c0.2,1.5,0.4,2.9,0.6,4.4c0.2,1.4,1,2.4,2.5,2.5c0.5,0,0.9,0.2,1.4,0.4
							c1.4,0.5,3.4-0.8,3.1-2.4c-0.2-1.3-0.3-2.6-0.5-3.8c-1,0.8-2.1,1.6-3.1,2.4c1.8,0.8,4.2,0.4,5.9-0.6c2.4-1.4,2.9-3.9,2.5-6.4
							c-1-5.5-8.4-5-11.1-1.4c1.3-0.2,2.6-0.3,3.9-0.5c-2.1-2.2-5.7-2-7.6,0.3c-1.2,1.4-0.5,3.2-0.3,4.9c0.3,2.4,3.2,3.5,4.6,1.3
							c-0.6-0.1-1.1-0.2-1.7-0.3C178.2,63.7,183,62.3,182.3,59.2z"/>
						<path fill="#9E1F63" d="M179.3,59.4c0.4,2.1,2.6,3.3,4.6,2.7c2.2-0.7,2.9-2.9,2.3-5c-0.6-2.2-3.4-3.4-5.4-2.1
							c-0.9,0.6-1.8,1.8-1.7,2.9c0,0.3,0.1,0.5,0.1,0.8c0.2,1.3,1,2.5,2.5,2.5c1.2,0,2.7-1.1,2.5-2.5c0-0.2-0.1-0.4-0.1-0.6
							c0,0.2-0.2,0.7-0.4,0.9c-0.6,0.6-1.4,0.5-2,0c-0.2-0.2-0.3-0.3-0.3-0.6c0.1,0.3,0.1,0.2,0-0.2c0,0.1,0,0.2,0,0.3
							c0,0,0,0.1,0,0.1c0-0.3,0.1-0.5,0.2-0.8c0.4-0.8,1.2-0.8,1.9-0.4c0.2,0.1,0.4,0.3,0.5,0.5c0.3,0.4,0.1,0.4,0.1,0.1
							c-0.2-1.3-1.8-2.1-3.1-1.7C179.7,56.7,179.1,58,179.3,59.4z"/>
					</g>
				</g>
			</g>
			<g>
				<g>
					<path fill="#9E1F63" d="M93.7,104.1c-1.1-0.1-1.9-0.5-2.3-1.3c-0.3-0.4-0.4-0.9-0.5-1.4c-0.1-1.2,0.5-2.2,1.7-2.9
						c1.2-0.7,3.3-1.2,6.2-1.3c0.5,0,1.1,0,1.6-0.1c3,0,5.1,0.4,6.3,1.4c1.6,1.3,2.5,3.3,2.5,5.8l-6,0.3c-2.2,0.1-3.7,0.4-4.6,0.9
						c-2,1.1-3,2.8-2.9,5c0.1,1.6,0.6,2.9,1.6,3.9c1,1.1,2.4,1.6,3.9,1.8c1.7,0.1,3.2,0,4.5-0.4c1.7-0.5,3.2-1.4,4.7-2.8l0.2,2.9
						c-1.3,0.9-2.3,1.4-2.9,1.7c-0.8,0.4-1.4,0.6-1.7,0.7c-1,0.5-1.4,1.1-1.4,1.8c0,0.7,0.4,1.2,1,1.5c0.7,0.3,1.5,0.4,2.6,0.2
						c1.7-0.3,2.8-0.9,3.1-1.9c0.1-0.3,0.2-0.7,0.2-1c0-0.4-0.2-0.8-0.5-1l2.8-0.2c0.3,0.6,0.4,1.3,0.4,2c-0.2,2.6-1.8,4.4-5,5.3
						c-1,0.3-2.1,0.5-3.3,0.5c-2.6,0.1-4.6-0.2-6.1-0.9c-1.2-0.6-1.8-1.6-1.9-2.9c-0.1-1.4,0.5-2.5,1.8-3.1c-2.6,0.1-4.5,0-5.7-0.4
						c-3.2-1.2-4.9-3.5-5.1-6.9c-0.1-1.9,0.4-3.6,1.6-5.1C91.4,105.3,92.4,104.6,93.7,104.1z M99,102.9l7.2-0.4
						c-0.2-1.5-1.3-2.4-3.3-2.8c-1.6-0.4-3.4-0.3-5.6,0.1c0.5,0.5,0.7,1,0.7,1.6c0,0.3,0,0.5-0.1,0.7c-0.2,0.5-0.5,0.9-0.9,1.2
						C97.6,103.1,98.3,103,99,102.9z"/>
					<g>
						<path fill="#9E1F63" d="M94.4,101.7c0.2-1.2,0.9-1.8,2-1.7c1.3-0.2,2.7-0.3,4-0.3c3.5-0.1,6,0.8,6.3,4.7
							c0.8-0.8,1.7-1.7,2.5-2.5c-6,0.3-13.9-0.3-15.9,6.8c-1,3.7,1.8,9,5.7,9.7c5.1,0.9,9.2-0.2,13.1-3.5c-1.4-0.6-2.8-1.2-4.2-1.8
							c0.1,1,0.1,1.9,0.2,2.9c0.4-0.7,0.8-1.4,1.2-2.1c-1.9,1.2-5.4,2.1-6.5,4.1c-1.3,2.2-0.6,4.7,1.6,5.9c4.9,2.9,11.2-1.9,8.8-7.1
							c-0.7,1.2-1.4,2.5-2.1,3.7c0.9-0.1,1.9-0.1,2.8-0.2c-0.8-0.6-1.6-1.2-2.4-1.8c1.3,3.6-3,4.4-5.5,4.6c-0.2,0-7.5-0.4-4.9-2.3
							c1.9-1.4,1.4-4.7-1.3-4.6c-2.5,0.1-4.9,0.2-6.9-1.5c-3.1-2.6-0.8-7.2,2.1-8.5c2.9-1.3,0.4-5.6-2.5-4.3
							c-5,2.2-6.8,7.3-5.5,12.5c1.5,5.8,7.7,6.9,12.7,6.8c-0.4-1.5-0.8-3.1-1.3-4.6c-5.9,4.4-2.1,11.2,4.5,11.6
							c6.2,0.3,16.1-2.6,13.1-10.9c-0.4-1-1.2-1.9-2.4-1.8c-0.9,0.1-1.9,0.1-2.8,0.2c-2,0.1-3,2-2.1,3.7c0.3,0.6-3.1,1.9,0.1,0.5
							c1-0.4,1.9-1.1,2.9-1.7c0.7-0.5,1.3-1.3,1.2-2.1c-0.1-1-0.1-1.9-0.2-2.9c-0.1-2.3-2.6-3.2-4.2-1.8c-2.3,1.9-8.4,4.8-10.3,0.1
							c-1.6-4,3.2-4.2,5-4.3c2-0.1,3.9-0.2,5.9-0.3c1.3-0.1,2.6-1.1,2.5-2.5c-0.6-8.6-7.5-10.5-15.2-9.4c-3,0.4-6.9,1.3-7.8,4.7
							c-1,3.5,1.3,5.9,4.4,6.8C96.1,107.4,97.5,102.6,94.4,101.7z"/>
						<path fill="#9E1F63" d="M99,105.4c2.4-0.1,4.8-0.3,7.2-0.4c1.7-0.1,2.7-1.5,2.4-3.1c-1-5.4-7.9-5.2-12-4.5
							c-1.5,0.3-2.4,2.4-1.5,3.7c0.6,0.8,0.5,0.1,0.1,0.5c-2,1.7,0.1,4.7,2.4,4.2C98.2,105.5,98.5,105.4,99,105.4
							c3.2-0.3,3.2-5.2,0-5c-0.9,0.1-1.8,0.2-2.7,0.4c0.8,1.4,1.6,2.8,2.4,4.2c2-1.7,2.2-4.4,0.7-6.5c-0.5,1.2-1,2.4-1.5,3.7
							c1.3-0.2,5.5-1,5.9,1c0.8-1,1.6-2.1,2.4-3.1c-2.4,0.1-4.8,0.3-7.2,0.4C95.8,100.6,95.8,105.6,99,105.4z"/>
					</g>
				</g>
				<g>
					<path fill="#9E1F63" d="M91.2,98.9l-1.3,0.9c-0.9-0.1-1.6-0.7-2.1-1.6c-0.4-0.7-0.6-1.4-0.6-2c0.1-1,0.2-1.7,0.5-2.2
						c0.5-0.9,1.4-1.6,2.6-2.3c1.7-0.9,4.3-1.5,7.8-1.7c3.2-0.2,5.7,0,7.5,0.6c1.3,0.4,2.3,1,3.1,1.9c0.5,0.6,0.8,1.6,0.9,2.7
						c0.1,1.8-0.7,3.1-2.4,3.6l-1.4-0.8c0.9-0.3,1.2-0.8,1.1-1.5c-0.1-0.8-0.6-1.3-1.4-1.7c-0.8-0.3-1.7-0.5-2.6-0.6
						c-1.2-0.1-2.8-0.1-4.6,0c-1.4,0.1-2.7,0.2-3.9,0.4c-0.8,0.1-1.6,0.3-2.4,0.6c-0.9,0.3-1.5,0.9-1.9,1.7
						c-0.1,0.1-0.1,0.3-0.1,0.6C90.1,98.4,90.5,98.8,91.2,98.9z"/>
					<g>
						<path fill="#9E1F63" d="M89.9,96.8c-0.3,0.2-0.6,0.5-0.9,0.7c1.5-0.5,2.4-1.7,2.6-3.6c1.4-0.9,3.5-1,5.1-1.2
							c1.9-0.2,3.8-0.2,5.7-0.1c1.6,0.1,7.4,2.4,3.6,4.2c0.8,0,1.7,0,2.5,0c-0.5-0.3-0.9-0.6-1.4-0.8c0,1.4,0,2.9,0,4.3
							c2.2-1.4,3.4-4.2,1.2-6.4c-2.5-2.5-6.8-2.1-10-2c-3.3,0.1-6.9,0.4-9.5,2.7c-2.2,2-1.3,5.3,1.1,6.5c2.9,1.4,5.4-2.9,2.5-4.3
							c1.9,0.9,3.9,0.2,5.9,0c0.8-0.1,1.7-0.1,2.5-0.1c0.4,0,0.7,0,1.1,0c1.2,0.6,2.1,0.3,2.6-0.9c-1.6,1-1.6,3.3,0,4.3
							c4.4,2.8,7.9-1.4,7.3-6c-0.9-6.4-8.8-6.8-13.8-6.6c-4.8,0.2-12.4,1.5-13.2,7.4c-0.6,4.4,3.2,9.3,7.5,6.1
							C95,99.2,92.5,94.9,89.9,96.8z"/>
					</g>
				</g>
				<g>
					<path fill="#9E1F63" d="M113.9,103.6c-0.9-0.4-1.5-1.1-1.7-2.1c-0.1-0.7-0.1-1.3,0.1-1.8c0.2-0.7,0.5-1.2,0.8-1.6
						c0.5-0.6,1.1-1,1.6-1.2c0.5-0.3,1.3-0.5,2.2-0.6c0.4-0.1,1.1,0,1.9,0.1c0.5,0.1,1.1,0.3,1.6,0.7c0.3,0.2,0.6,0.5,1,1.1
						c0.4,0.5,0.6,1.1,0.7,1.7c1-1.5,2.3-2.6,3.9-3.3c1.1-0.5,2.5-0.8,4.3-0.9c1.4-0.1,2.8,0.1,4.1,0.6c1.1,0.4,2.2,1,3.1,1.8
						c2.5,2,3.8,4.7,4,8.1c0.2,4.3-1.1,7.5-4.1,9.4c-1.7,1.1-4.3,1.6-8,1.6l-0.1-1.9c1.5,0,2.8-0.4,4.1-1.3c0.7-0.5,1.3-1.2,1.8-2.1
						c0.5-1.1,0.8-2.3,0.8-3.7c0-0.9-0.1-1.7-0.3-2.4c-0.3-1-0.6-1.8-0.9-2.4c-0.9-1.5-2.1-2.5-3.5-3c-0.9-0.3-2-0.5-3.2-0.4
						c-0.5,0-1,0.1-1.5,0.2c-0.9,0.3-1.6,0.6-2.1,1c-0.2,0.2-0.6,0.5-1,0.9c1-0.1,1.8-0.1,2.6,0.1c0.8,0.2,1.6,0.7,2.6,1.3
						c1.1,0.8,2,2.1,2.4,3.8c0.2,0.7,0.3,1.3,0.3,2c0.1,1.2-0.1,2.3-0.5,3.4c-0.7,1.8-1.9,3.1-3.6,4c-1.4,0.7-3.2,1.1-5.5,1.2
						c-2.5,0.1-4.5-0.3-6.1-1.2c-1.5-0.9-2.6-2.2-3.4-3.9c-0.4-0.8-0.6-1.8-0.8-2.9c-0.1-0.7-0.2-1.6-0.1-2.6c0-0.3,0.1-0.8,0.1-1.5
						l2.2-0.1c0,0.4,0.1,0.7,0.1,0.8c0.2,0.4,0.6,0.7,1.4,0.8c1,0.1,1.9-0.2,2.8-0.9c1.2-1,1.9-2.2,2.1-3.7c0.2-0.8,0.1-1.6-0.2-2.4
						c-0.2-0.5-0.5-1-1-1.2c-0.5-0.3-1-0.4-1.7-0.3c-0.6,0.1-0.9,0.2-1.1,0.5c0.4-0.1,0.8,0.1,1.2,0.6c0.4,0.5,0.6,1,0.6,1.7
						c0,0.8-0.2,1.4-0.8,1.9c-0.5,0.5-1.2,0.7-2,0.8C114.8,103.9,114.3,103.8,113.9,103.6z M122.1,104.1c-0.2,0.2-0.5,0.7-1,1.3
						c-0.5,0.8-1.1,1.5-1.9,2.3c-0.9,0.9-2.1,1.3-3.4,1.4c-1.1,0.1-1.8-0.1-2-0.5c0.1,0.9,0.4,1.7,1,2.3c0.5,0.6,1.1,1,2,1.3
						c0.7,0.3,1.4,0.4,2.2,0.4c0.9,0,1.6,0,2.1-0.1c0.5-0.1,1.1-0.2,2-0.5c1.5-0.8,2.6-1.8,3.1-3c0.2-0.6,0.4-1.2,0.3-1.8
						c0-0.6-0.2-1.3-0.4-1.8c-0.5-1.2-1.4-1.8-2.7-1.7C122.8,103.7,122.4,103.8,122.1,104.1z"/>
					<g>
						<path fill="#9E1F63" d="M115.2,101.5c-1.7-1,3.4-5.2,4.5-1c0.5,1.6,3,2.6,4.2,1.1c3.8-4.9,10.7-4.6,14.1,0.5
							c1.8,2.6,1.4,6.7,0,9.3c-1.6,3-5.7,3-8.5,3.1c0.8,0.8,1.7,1.7,2.5,2.5c0-0.6-0.1-1.3-0.1-1.9c-0.8,0.8-1.7,1.7-2.5,2.5
							c7.7-0.7,10.5-7.2,8.3-14.2c-2.2-7.1-11-7.9-15.9-3.5c-1.6,1.4-0.4,4.4,1.8,4.2c3.1-0.2,5.1,1.6,5.5,4.7
							c0.5,4.6-3.7,5.8-7.1,6.1c-6.4,0.6-8.1-4.4-7.9-9.6c-0.8,0.8-1.7,1.7-2.5,2.5c0.7,0,1.5-0.1,2.2-0.1c-0.8-0.6-1.6-1.2-2.4-1.8
							c1,6.3,9.4,2.9,10.8-1.5c1.5-5.1-1.6-10.4-7.2-7.6c-1.6,0.8-1.7,3.5,0,4.3c-0.1,0-0.2,0.1-0.3,0.1c-3.1-0.5-4.5,4.3-1.3,4.8
							c5.9,0.9,10.6-6.2,4.1-9.2c0,1.4,0,2.9,0,4.3c-0.4,1.2-0.9,2.4-1.3,3.6c-0.2-1-1.4-1.9-2.4-1.8c-0.7,0-1.5,0.1-2.2,0.1
							c-1.4,0.1-2.4,1.1-2.5,2.5c-0.2,4.4,0.5,9.6,4.5,12.3c4.5,3.1,10.3,2.8,15.2,0.7c10-4.2,5-19.8-5.1-19.2
							c0.6,1.4,1.2,2.8,1.8,4.2c7-6.3,12.4,8.4,4.1,9.1c-1.3,0.1-2.6,1-2.5,2.5c0,0.6,0.1,1.3,0.1,1.9c0.1,1.3,1.1,2.5,2.5,2.5
							c4.4-0.1,9.2-0.7,12-4.5c2.9-3.9,3.2-9.1,1.6-13.6c-3.3-9.5-16.8-10.9-22.8-3.3c1.4,0.4,2.8,0.7,4.2,1.1
							c-3.6-12.9-22.1,0.4-11.9,6.6C115.4,107.4,117.9,103.1,115.2,101.5z"/>
						<path fill="#9E1F63" d="M120.4,102.3c-0.7,0.8-1.1,1.7-1.8,2.5c-0.5,0.6-1.1,1.3-1.9,1.6c-0.7,0.3-1.7-0.2-1.1,0.4
							c-1.9-1.8-4.6,0-4.2,2.4c1.4,7.1,10.8,7.1,15.3,3.2c5-4.3,0.6-14.1-5.9-10.5c-2.8,1.5-0.3,5.8,2.5,4.3c1-0.6,0.4,2.1,0.4,2.1
							c-0.5,1-1.7,1.4-2.7,1.6c-1.9,0.5-4.3,0.2-4.8-2.1c-1.4,0.8-2.8,1.6-4.2,2.4c1.8,1.7,4.5,1.5,6.6,0.6c2.5-1,3.5-3.2,5.2-5.1
							C126,103.4,122.5,99.9,120.4,102.3z"/>
					</g>
				</g>
				<g>
					<path fill="#9E1F63" d="M140.6,108.7l0.9,16l-20.7,1.2c-2.4,0.1-3.9-0.7-4.4-2.4c-0.3-0.9-0.4-1.8-0.3-2.7c0.1-1,0.4-1.8,1-2.5
						l2.4-0.1c-0.2,0.2-0.3,0.3-0.4,0.5c-0.2,0.2-0.3,0.4-0.3,0.7c0,0.4,0.2,0.6,0.6,0.8c0.3,0.1,0.7,0.1,1.2,0.1l18.4-1l-0.5-8.5
						C139.1,110.4,139.8,109.7,140.6,108.7z"/>
					<g>
						<path fill="#9E1F63" d="M138.1,108.7c0.3,5.3,0.6,10.7,0.9,16c0.8-0.8,1.7-1.7,2.5-2.5c-3.4,0.2-6.9,0.4-10.3,0.6
							c-1,0.1-15.1,2.3-11.9-3.2c-0.7,0.4-1.4,0.8-2.1,1.2c0.8,0,1.6-0.1,2.4-0.1c-0.6-1.4-1.2-2.8-1.8-4.2
							c-1.6,1.8-2.1,4.5,0.4,5.9c1.4,0.8,3.8,0.3,5.3,0.2c5.2-0.3,10.3-0.6,15.5-0.9c1.3-0.1,2.6-1.1,2.5-2.5
							c-0.1-1.6-0.2-3.2-0.3-4.8c0-0.9-0.1-1.7-0.1-2.6c-0.1-1.8-0.5,0.6,1.4-1.5c2.1-2.4-1.4-5.9-3.5-3.5c-2.1,2.3-2.9,2.7-2.8,5.7
							c0.1,2.2,0.3,4.4,0.4,6.6c0.8-0.8,1.7-1.7,2.5-2.5c-6.4,0.4-13.1,1.3-19.6,1c0.7,0.4,1.4,0.8,2.1,1.2c-0.1,0.3-0.2,0.7-0.3,1
							c1.3-1.5,0.5-4.4-1.8-4.2c-4.1,0.2-6.7,2.4-5.7,7.1c0.8,4,3.6,5.8,7.6,5.5c6.7-0.4,13.4-0.8,20.1-1.1c1.3-0.1,2.6-1.1,2.5-2.5
							c-0.3-5.3-0.6-10.7-0.9-16C142.9,105.5,137.9,105.5,138.1,108.7z"/>
					</g>
				</g>
				<g>
					<path fill="#9E1F63" d="M167.6,108.4c-0.9,2-2.2,3.6-3.9,4.9c-1.9,1.4-4.5,2.2-8,2.4c-4.5,0.3-7.9-0.8-10.2-3.1
						c-1.8-1.7-2.8-4.1-3.3-7.2c-0.2-1.6-0.2-3.1,0.1-4.6c0.2-1,0.6-2,1.2-3c0.6-1,1.3-1.7,2-2.2c0.9-0.6,1.9-1,3.1-1
						c0.9,0,1.6,0.1,1.9,0.4c0.7,0.6,1.1,1.3,1.2,2.1c0.1,0.7-0.2,1.6-0.8,2.9c-0.3,0.5-0.3,1.2,0,1.9c0.5,1.3,1.7,2,3.6,2
						c2.2,0,3.8-0.6,4.5-1.9c0.2-0.4,0.4-0.8,0.4-1.2c0.1-0.7,0-1.2-0.2-1.7c-0.2,1-0.7,1.8-1.6,2.2c-0.7,0.3-1.4,0.5-2.2,0.4
						c-1-0.1-1.8-0.4-2.4-1.1c-0.6-0.7-0.9-1.5-1-2.4c-0.1-1,0.3-2,1-2.8c0.7-0.8,1.6-1.3,2.6-1.3c1.3-0.1,2.4,0,3.1,0.4
						c1.9,1,3,2.8,3.1,5.4c0,0.9,0,1.7-0.3,2.6c-0.3,1.3-1.1,2.4-2.4,3.3c-1.1,0.8-2.7,1.2-4.7,1.2c-1.4,0-2.8-0.4-4.1-1.2
						c-0.7-0.5-1.3-1.2-1.8-2.1c-0.3-0.6-0.5-1.3-0.5-2c0-0.5,0-1,0.1-1.5s0.3-0.9,0.7-1.4c0.3-0.4,0.5-0.9,0.5-1.3
						c0-0.6-0.3-0.9-0.9-0.8c-0.9,0-1.7,0.6-2.4,1.8c-0.7,1.1-1,2.6-0.9,4.4c0.1,1.6,0.7,3.1,1.9,4.5c0.8,0.9,2,1.6,3.8,2.2
						c1.3,0.4,2.9,0.5,4.8,0.4c3.6-0.2,6.2-1.5,7.8-3.9c0.8-1.2,1.3-2.7,1.5-4.5c0-0.4,0-0.8,0-1.2c-0.1-2.4-0.9-4.3-2.2-5.7
						c-1.6-1.7-4.2-2.5-7.7-2.4c-2.5,0.1-4.8,0.4-6.8,0.8c-2.2,0.5-4.1,1.1-5.5,1.9l-0.1-2.4c1.2-0.5,2.1-0.8,2.7-1.1
						c0.3-0.1,0.4-0.3,0.4-0.5c0-0.1-0.1-0.2-0.1-0.3c-0.3-0.1-0.7-0.3-1.3-0.7c-0.4-0.5-0.5-1-0.3-1.6c0.2-0.7,0.7-1.4,1.6-1.9
						c1-0.6,2.2-1.1,3.8-1.4c2.1-0.3,4.5-0.6,7.3-0.6c4.3-0.1,7.1,0.4,8.5,1.4c1.1,0.8,1.6,1.8,1.7,3.1c0,0.3,0,0.6,0,0.9
						c-0.2,1.2-1,2-2.3,2.5c1.2,1.1,2.2,2.4,2.9,4.1c0.8,1.7,1.2,3.3,1.4,5C169,103.9,168.6,106.2,167.6,108.4z M150.8,88.5
						c-1.3,0.2-2.1,0.5-2.5,0.9c-0.2,0.1-0.2,0.3-0.2,0.4c0,0.1,0.1,0.2,0.2,0.4c0.1,0.2,0.2,0.3,0.1,0.4c1.5-0.4,3.7-0.6,6.8-0.8
						c2.7-0.2,5.1,0.2,7,1.1c0.7-0.2,1.1-0.5,1-0.9c0-0.6-0.5-1.1-1.3-1.4c-1.2-0.5-3.6-0.6-7.1-0.4C153,88.3,151.7,88.4,150.8,88.5
						z M155.7,96.2c-0.5,0.1-0.8,0.3-1.1,0.7c-0.3,0.4-0.4,0.8-0.3,1.2c0.1,0.5,0.3,0.8,0.7,1.1c0.4,0.3,0.8,0.4,1.2,0.3
						c0.4-0.1,0.8-0.3,1.1-0.6c0.3-0.4,0.4-0.8,0.4-1.2c-0.1-0.4-0.3-0.8-0.6-1.1C156.6,96.3,156.2,96.1,155.7,96.2z"/>
					<g>
						<path fill="#9E1F63" d="M165.5,107.2c-3.2,6.2-12.7,8.4-18.3,3.6c-3.1-2.7-3.3-8.3-1.6-11.7c1-0.7,2-1.4,3-2
							c0.3,0.8,0.2,1.6-0.2,2.2c-0.2,0.8-0.4,1.4-0.2,2.2c1.5,8.1,15.5,5.4,13.4-3.1c-0.6-2.5-4-2.2-4.8,0c-0.5-2.9,0.3-2.6,2.3,0.7
							c1.1,3.4-2,5.3-4.8,5.4c-7.6,0.4-1.7-5.2-2.6-7.7c-1.1-2.9-3.8-3.3-6.2-1.5c-2.9,2.2-3.7,7.1-2.3,10.3c2,4.7,5.7,6.4,10.6,6.8
							c9.4,0.8,15.9-7.7,12.6-16.6c-3.6-9.5-18-6.4-24.9-3.1c1.2,0.7,2.5,1.4,3.7,2.1c0-0.8-0.1-1.6-0.1-2.4
							c-0.6,0.8-1.2,1.6-1.8,2.4c1.5-0.6,3.2-1,4.2-2.3c0.8-0.9,0.9-1.9,0.4-3c-0.2-0.5-0.6-0.9-1-1.2c0.4,0.2,5.9-1.3,6.7-1.4
							c1.6-0.1,3.2-0.2,4.9-0.2c-0.1,0,8.9,1.2,4.8,3.3c-1.4,0.7-1.6,2.8-0.5,3.9c3.7,3.7,4.3,9,2.5,13.7c-1.1,3,3.7,4.3,4.8,1.3
							c2.4-6.4,1.1-13.7-3.8-18.6c-0.2,1.3-0.3,2.6-0.5,3.9c2.9-1.5,4.8-4.8,3-8c-2.2-4-6.2-4.4-10.3-4.6
							c-4.2-0.2-11.1-0.2-14.6,2.7c-1.5,1.3-2.2,2.5-2.4,4.6c-0.1,1.8,1.7,2.1,2.1,3c0.1-1,0.3-2,0.4-3c-0.6,0.5-1.3,0.8-2.1,1
							c-1,0.4-1.9,1.2-1.8,2.4c0,0.8,0.1,1.6,0.1,2.4c0.1,2,2,3,3.7,2.1c4.6-2.2,15.6-5,18,1.3c1.4,3.7-0.7,7.5-4.2,8.7
							c-1.3,0.3-2.6,0.4-4,0.4c-0.8-0.1-1.6-0.2-2.3-0.3c-3.7-1.4-4.7-4-3.1-7.9c-0.6-0.6-1.2-1.2-1.7-1.7c-0.1-0.3-1.1,4.1-1.1,4.2
							c-0.1,1.6,0.8,3.2,1.6,4.5c1.8,2.9,6.2,3.7,9.3,3.1c6.4-1.1,10.9-9.6,5.8-15c-4-4.2-14.4-3-12.7,4.6c1.4,6.3,9.9,7.1,12,0.8
							c-1.6,0-3.2,0-4.8,0c-1.5,2.2-2.6,2.3-3.3,0.3c0.2-0.5,0.4-1,0.5-1.6c0.3-1.1,0-2.1-0.3-3.2c-0.7-2.4-3-3-5.1-3.2
							c-6.9-0.5-9.8,8.5-8.8,13.9c1.2,6.7,5.3,11,12.1,12c7.4,1.1,14.4-1.6,17.9-8.3C171.3,106.9,167,104.3,165.5,107.2z"/>
						<path fill="#9E1F63" d="M150.2,86.1c-2.9,0.6-5.1,2-4.1,5.1c0.4,1.3,1.7,2,3.1,1.7c3.5-0.8,7.5-1.2,10.9-0.3
							c1.5,0.4,2.5,1,4,0.1c1-0.6,1.7-1.7,1.7-2.9C165.8,83.6,153.7,85.7,150.2,86.1c-3.2,0.4-1.8,5.2,1.3,4.8
							c2.2-0.3,4.4-0.3,6.6-0.4c0.8,0,1.6,0,2.3,0.1c1.2,0.5,1.8-0.4,1.8-2.5c-0.5-0.2-1.1-0.4-1.6-0.5c-4-1-8.8-0.4-12.8,0.5
							c1,0.6,2,1.2,3.1,1.7c-0.2-0.5-0.3-0.9-0.6-1.4c0,0.8,0,1.7,0,2.5c-0.3,0.5,0.6,0,1.2-0.1C154.7,90.3,153.3,85.5,150.2,86.1z"
							/>
						<path fill="#9E1F63" d="M155,93.8c-2.2,0.5-3.7,2.7-3.2,5c0.5,2.3,2.7,3.5,5,3.1c2.3-0.4,3.6-2.8,3.2-4.9
							c-0.3-1.9-2.3-3.5-4.3-3.3c-1.3,0.2-2.5,1-2.5,2.5c0,1.2,1.1,2.7,2.5,2.5c0.2,0,0.6,0.1,0.1,0c-0.4-0.1-0.5-0.3-0.7-0.7
							c0.1,0.3,0.1,0.2,0-0.1c0-0.2,0-0.3,0.1-0.4c0.1-0.1,0.2-0.2,0.3-0.3c-0.2,0.1-0.2,0.1,0.1,0c0.3-0.1,0.5,0,0.7,0.1
							c0.1,0.1,0.2,0.2,0.3,0.4c-0.1-0.2-0.1-0.2,0,0.1c0.1,0.3,0,0.6-0.2,0.9c-0.3,0.2-0.3,0.2-0.1,0c-0.3,0.1-0.3,0.1,0,0.1
							c1.3-0.3,2.1-1.8,1.7-3.1C157.7,94.2,156.4,93.5,155,93.8z"/>
					</g>
				</g>
			</g>
		</g>
		<g>
			<path fill="none" d="M165.7,74.9c0.5-0.1,0.9,0.3,1,1.2c0.1,1,1,1.6,2.6,1.8c1.4,0.2,2.8,0,4.3-0.6c1.9-0.8,2.9-2,2.9-3.7
				c0-0.5-0.1-0.9-0.2-1.3l-9.3,0.5c-0.5,0.6-1,1.3-1.6,2C165.5,74.9,165.6,74.9,165.7,74.9z"/>
			<path fill="none" d="M155.5,96.1c-0.5,0.1-0.8,0.3-1.1,0.7c-0.3,0.4-0.4,0.8-0.3,1.2c0.1,0.5,0.3,0.8,0.7,1.1
				c0.4,0.3,0.8,0.4,1.2,0.3c0.4-0.1,0.8-0.3,1.1-0.6c0.3-0.4,0.4-0.8,0.4-1.2c-0.1-0.4-0.3-0.8-0.6-1.1
				C156.4,96.1,156,96,155.5,96.1z"/>
			<path fill="none" d="M106,102.3c-0.2-1.5-1.3-2.4-3.3-2.8c-1.6-0.4-3.4-0.3-5.6,0.1c0.5,0.5,0.7,1,0.7,1.6c0,0.3,0,0.5-0.1,0.7
				c-0.2,0.5-0.5,0.9-0.9,1.2c0.6-0.2,1.3-0.3,2-0.3L106,102.3z"/>
			<path fill="none" d="M150.6,88.4c-1.3,0.2-2.1,0.5-2.5,0.9c-0.2,0.1-0.2,0.3-0.2,0.4c0,0.1,0.1,0.2,0.2,0.4
				c0.1,0.2,0.2,0.3,0.1,0.4c1.5-0.4,3.7-0.6,6.8-0.8c2.7-0.2,5.1,0.2,7,1.1c0.7-0.2,1.1-0.5,1-0.9c0-0.6-0.5-1.1-1.3-1.4
				c-1.2-0.5-3.6-0.6-7.1-0.4C152.8,88.1,151.5,88.2,150.6,88.4z"/>
			<path fill="none" d="M121.9,103.9c-0.2,0.2-0.5,0.7-1,1.3c-0.5,0.8-1.1,1.5-1.9,2.3c-0.9,0.9-2.1,1.3-3.4,1.4
				c-1.1,0.1-1.8-0.1-2-0.5c0.1,0.9,0.4,1.7,1,2.3c0.5,0.6,1.1,1,2,1.3c0.7,0.3,1.4,0.4,2.2,0.4c0.9,0,1.6,0,2.1-0.1
				c0.5-0.1,1.1-0.2,2-0.5c1.5-0.8,2.6-1.8,3.1-3c0.2-0.6,0.4-1.2,0.3-1.8c0-0.6-0.2-1.3-0.4-1.8c-0.5-1.2-1.4-1.8-2.7-1.7
				C122.6,103.5,122.2,103.7,121.9,103.9z"/>
			<path fill="none" d="M77,78.7c0.2,0.2,0.2,0.6,0.3,1l-0.1,0.9c0,0.5,0.1,0.9,0.3,1c0.3,0.4,0.6,0.6,1.1,0.8
				c0.4,0.1,0.8,0.2,1.2,0.2c0.6,0,1.2-0.1,1.8-0.5c0.6-0.4,0.9-1.1,1-2.1c0-0.4,0-0.9-0.1-1.4l2.7,0.2C85.1,79,85,79.4,85,79.8
				c-0.1,1,0.1,1.8,0.6,2.4c0.4,0.6,1.2,0.9,2.2,0.8c0.6,0,1.1-0.1,1.4-0.3c0.3-0.2,0.6-0.4,0.9-0.7c0.5-0.5,0.7-1.1,0.8-1.9
				c0.1-1.1,0-2-0.3-2.9l-14.1,0.8C76.6,78.2,76.8,78.4,77,78.7z"/>
			<path fill="none" d="M109.2,77.6c0.5,0.9,1.7,1.6,3.4,2c0.8,0.2,2.3,0.2,4.6,0c1.8-0.1,3.3-0.6,4.5-1.4c1.2-0.7,2-1.7,2.6-2.9
				l-15.4,0.9c0,0.1,0,0.2,0,0.3C109,77,109.1,77.3,109.2,77.6z"/>
			<path fill="none" d="M137.1,78.4c1.1,0.5,2.6,0.8,4.5,0.8c2,0,3.6-0.5,4.7-1.4c1.3-1,2.1-2.3,2.3-3.8l-14.8,0.8
				C134.3,76.4,135.4,77.6,137.1,78.4z"/>
			<path fill="#FED307" d="M97.8,80c0,0.8-0.1,1.6-0.3,2.5c-0.2,0.9-0.6,1.8-1.2,2.6c-0.6,0.8-1.2,1.4-1.9,1.6
				c-0.7,0.3-1.4,0.3-2.2,0.1l-0.1,2c2.4,0.4,4.4,0.4,5.9-0.2c1.5-0.6,2.6-1.3,3.3-2.2c0.8-1,1.4-1.9,1.6-2.7
				c0.5-1.6,0.8-3.1,0.8-4.7c0-0.7-0.1-1.3-0.1-1.9c0-0.2-0.1-0.4-0.1-0.5l-6,0.3C97.7,77.8,97.8,78.9,97.8,80z"/>
			<path fill="#FED307" d="M90.8,80.2c-0.1,0.7-0.3,1.4-0.8,1.9c-0.3,0.3-0.6,0.6-0.9,0.7c-0.3,0.2-0.8,0.3-1.4,0.3
				c-1,0-1.7-0.3-2.2-0.8c-0.4-0.6-0.6-1.4-0.6-2.4c0-0.4,0.1-0.8,0.2-1.2l-2.7-0.2c0.1,0.5,0.1,1,0.1,1.4c-0.1,1-0.4,1.7-1,2.1
				c-0.6,0.4-1.2,0.6-1.8,0.5c-0.5,0-0.9-0.1-1.2-0.2c-0.5-0.1-0.8-0.4-1.1-0.8c-0.1-0.2-0.2-0.5-0.3-1l0.1-0.9c0-0.4-0.1-0.8-0.3-1
				c-0.2-0.3-0.4-0.4-0.7-0.6l-3.8,0.2l-0.1,2.2c0.5-0.3,0.9-0.6,1.2-0.8c0.5-0.1,0.7,0,0.7,0.4c0,0.4,0,0.7-0.2,0.9
				c-0.4,0.5-0.6,0.7-0.6,0.7c-0.2,0.4-0.3,0.9-0.4,1.7c0,0.7,0.1,1.4,0.5,2.1c0.6,0.8,1.1,1.3,1.3,1.5c0.8,0.6,1.9,0.9,3.5,1
				c1.2,0.1,2.3-0.1,3.2-0.4c0.8-0.3,1.3-0.8,1.6-1.6c0.1,0.7,0.6,1.3,1.3,1.8c0.8,0.5,1.7,0.7,2.9,0.8c1,0.1,1.9-0.1,2.8-0.6
				c0.9-0.4,1.7-1.1,2.2-1.9c0.5-0.8,0.9-1.6,1.1-2.4c0.3-1.1,0.5-2.3,0.5-3.6c0-1.1-0.2-2.2-0.5-3.1l-3.1,0.2
				C90.8,78.2,90.9,79.1,90.8,80.2z"/>
			<path fill="#FED307" d="M176.5,73.7c0,1.7-1,2.9-2.9,3.7c-1.5,0.6-2.9,0.8-4.3,0.6c-1.6-0.2-2.4-0.8-2.6-1.8
				c-0.1-0.9-0.4-1.3-1-1.2c-0.1,0-0.2,0-0.4,0c0.6-0.7,1.1-1.4,1.6-2l-2.6,0.1c-0.6,0.8-1.2,1.6-1.8,2.5l0.3,2.2
				c0.6-0.7,1.1-1.1,1.3-1.2c0.1,0,0.2,0,0.3,0c0.3,0.1,0.3,0.3,0.1,0.7c-0.5,0.9-0.7,1.7-0.6,2.3c0,0.2,0.1,0.4,0.2,0.6
				c0.9,2.5,3.8,3.3,8.5,2.5c3.4-0.6,5.6-1.7,6.8-3.5c0.9-1.4,1.2-3.1,1-5.1c-0.1-0.7-0.3-1.3-0.5-1.9l-3.7,0.2
				C176.5,72.8,176.5,73.2,176.5,73.7z"/>
			<path fill="#FED307" d="M184.3,73c0.3,1.9,0.2,3.4-0.4,4.5c-0.8,1.6-2.3,2.5-4.4,2.7l0.2,1.8c3.8-0.3,6.4-1.4,7.9-3.4
				c1.3-1.8,1.8-4,1.4-6.8l-4.9,0.3C184.2,72.3,184.2,72.6,184.3,73z"/>
			<path fill="#FED307" d="M110.7,118c0.3,0.3,0.5,0.6,0.5,1c0,0.3,0,0.6-0.2,1c-0.4,1-1.4,1.6-3.1,1.9c-1.1,0.2-1.9,0.1-2.6-0.2
				c-0.7-0.3-1-0.8-1-1.5c0-0.7,0.5-1.3,1.4-1.8c0.4-0.1,0.9-0.4,1.7-0.7c0.6-0.3,1.5-0.8,2.9-1.7l-0.2-2.9c-1.4,1.3-3,2.3-4.7,2.8
				c-1.3,0.4-2.8,0.5-4.5,0.4c-1.6-0.1-2.9-0.7-3.9-1.8c-1-1-1.5-2.3-1.6-3.9c-0.1-2.2,0.8-3.9,2.9-5c0.9-0.5,2.5-0.8,4.6-0.9l6-0.3
				c0-2.5-0.8-4.5-2.5-5.8c-1.2-1-3.3-1.4-6.3-1.4c-0.6,0-1.1,0-1.6,0.1c-2.9,0.2-4.9,0.6-6.2,1.3c-1.2,0.7-1.8,1.7-1.7,2.9
				c0,0.5,0.2,0.9,0.5,1.4c0.5,0.7,1.3,1.1,2.3,1.3c-1.3,0.4-2.3,1.2-3.2,2.2c-1.2,1.5-1.7,3.2-1.6,5.1c0.2,3.4,1.9,5.7,5.1,6.9
				c1.2,0.4,3.1,0.6,5.7,0.4c-1.3,0.7-1.9,1.7-1.8,3.1c0.1,1.3,0.7,2.3,1.9,2.9c1.5,0.8,3.5,1.1,6.1,0.9c1.2-0.1,2.3-0.2,3.3-0.5
				c3.2-0.9,4.8-2.6,5-5.3c0-0.7-0.1-1.4-0.4-2L110.7,118z M97.7,101.9c0.1-0.2,0.1-0.5,0.1-0.7c0-0.5-0.3-1.1-0.7-1.6
				c2.2-0.4,4.1-0.5,5.6-0.1c2,0.4,3.1,1.4,3.3,2.8l-7.2,0.4c-0.7,0-1.4,0.1-2,0.3C97.2,102.8,97.5,102.4,97.7,101.9z"/>
			<path fill="#FED307" d="M121.8,78.2c-1.2,0.8-2.7,1.2-4.5,1.4c-2.3,0.2-3.8,0.1-4.6,0c-1.8-0.4-2.9-1.1-3.4-2
				c-0.2-0.3-0.3-0.6-0.3-1c0-0.1,0-0.2,0-0.3l-3.5,0.2c-0.1,0.9,0,1.8,0.2,2.8c0.4,1.6,1.3,3,2.8,4.2c2,1.6,5.2,2.1,9.5,1.5
				c3.1-0.4,5.4-1.2,6.9-2.2c0.7-0.5,1.3-1.1,1.8-1.7l0.6,5.4l-16.5,1.7c-0.5,0-0.8,0-1.1,0c-0.4-0.1-0.6-0.4-0.6-0.7
				c0-0.3,0.1-0.5,0.2-0.7c0.1-0.1,0.2-0.3,0.4-0.5l-2.1,0.2c-0.5,0.6-0.7,1.4-0.8,2.2c0,0.8,0.1,1.6,0.4,2.4c0,0,0,0.1,0,0.1
				c-0.5-0.3-1.1-0.6-1.7-0.8c-1.8-0.6-4.3-0.8-7.5-0.6c-3.5,0.2-6.1,0.8-7.8,1.7c-1.2,0.7-2.1,1.4-2.6,2.3
				c-0.3,0.5-0.4,1.2-0.5,2.2c0,0.6,0.2,1.3,0.6,2c0.5,0.9,1.2,1.5,2.1,1.6l1.3-0.9c-0.7-0.1-1.1-0.5-1.1-1.3c0-0.2,0-0.4,0.1-0.6
				c0.4-0.8,1-1.4,1.9-1.7c0.9-0.3,1.7-0.5,2.4-0.6c1.2-0.2,2.5-0.3,3.9-0.4c1.8-0.1,3.4-0.1,4.6,0c0.9,0.1,1.8,0.3,2.6,0.6
				c0.8,0.3,1.3,0.9,1.4,1.7c0.1,0.7-0.3,1.2-1.1,1.5l1.4,0.8c1.7-0.6,2.5-1.8,2.4-3.6c0-0.9-0.2-1.6-0.5-2.2
				c0.6,0.2,1.4,0.3,2.4,0.2l18.5-1.9l-1.4-13.6c0,0,0-0.1,0-0.1c0.2-0.8,0.4-1.6,0.5-2.4l-4.5,0.3
				C123.8,76.5,122.9,77.5,121.8,78.2z"/>
			<path fill="#FED307" d="M137.4,97.7c-1-0.8-2-1.4-3.1-1.8c-1.3-0.5-2.7-0.6-4.1-0.6c-1.8,0.1-3.2,0.4-4.3,0.9
				c-1.6,0.8-2.9,1.9-3.9,3.3c-0.1-0.6-0.3-1.1-0.7-1.7c-0.4-0.5-0.7-0.9-1-1.1c-0.6-0.4-1.1-0.6-1.6-0.7c-0.8-0.1-1.5-0.2-1.9-0.1
				c-0.9,0.1-1.7,0.3-2.2,0.6c-0.5,0.3-1,0.7-1.6,1.2c-0.3,0.4-0.6,0.9-0.8,1.6c-0.2,0.5-0.2,1.1-0.1,1.8c0.2,1,0.7,1.7,1.7,2.1
				c0.4,0.2,0.9,0.2,1.4,0.2c0.8,0,1.4-0.3,2-0.8c0.5-0.5,0.8-1.1,0.8-1.9c0-0.6-0.3-1.2-0.6-1.7c-0.4-0.5-0.8-0.7-1.2-0.6
				c0.2-0.3,0.5-0.5,1.1-0.5c0.7-0.1,1.2,0,1.7,0.3c0.5,0.3,0.8,0.7,1,1.2c0.3,0.8,0.4,1.6,0.2,2.4c-0.3,1.5-1,2.7-2.1,3.7
				c-0.8,0.7-1.8,1-2.8,0.9c-0.7-0.1-1.2-0.4-1.4-0.8c-0.1-0.1-0.1-0.4-0.1-0.8l-2.2,0.1c0,0.7,0,1.2-0.1,1.5c0,1,0,1.8,0.1,2.6
				c0.2,1.1,0.5,2,0.8,2.9c0.7,1.8,1.9,3.1,3.4,3.9c1.6,0.9,3.7,1.4,6.1,1.2c2.3-0.1,4.1-0.5,5.5-1.2c1.7-0.9,2.9-2.2,3.6-4
				c0.4-1.1,0.6-2.2,0.5-3.4c0-0.6-0.1-1.3-0.3-2c-0.5-1.7-1.3-2.9-2.4-3.8c-0.9-0.7-1.8-1.1-2.6-1.3c-0.8-0.2-1.6-0.3-2.6-0.1
				c0.5-0.4,0.8-0.8,1-0.9c0.5-0.4,1.1-0.8,2.1-1c0.4-0.1,0.9-0.2,1.5-0.2c1.2-0.1,2.3,0.1,3.2,0.4c1.4,0.5,2.5,1.6,3.5,3
				c0.4,0.6,0.7,1.4,0.9,2.4c0.2,0.7,0.3,1.6,0.3,2.4c0,1.4-0.2,2.7-0.8,3.7c-0.5,0.9-1,1.6-1.8,2.1c-1.3,0.9-2.7,1.4-4.1,1.3
				l0.1,1.9c3.6,0,6.3-0.5,8-1.6c0.4-0.3,0.8-0.6,1.2-0.9l0.3,4.8l-18.4,1c-0.5,0-0.9,0-1.2-0.1c-0.4-0.2-0.6-0.4-0.6-0.8
				c0-0.3,0.1-0.5,0.3-0.7c0.1-0.1,0.2-0.3,0.4-0.5l-2.4,0.1c-0.6,0.7-0.9,1.5-1,2.5c-0.1,0.9,0,1.8,0.3,2.7c0.5,1.7,2,2.5,4.4,2.4
				l20.7-1.2l-0.7-13.2c0.7-1.6,1-3.4,0.9-5.6C141.2,102.4,139.9,99.7,137.4,97.7z M125.9,105.2c0.3,0.6,0.4,1.2,0.4,1.8
				c0,0.6-0.1,1.2-0.3,1.8c-0.5,1.2-1.6,2.2-3.1,3c-0.8,0.2-1.5,0.4-2,0.5c-0.6,0.1-1.3,0.1-2.1,0.1c-0.8,0-1.5-0.2-2.2-0.4
				c-0.8-0.3-1.5-0.8-2-1.3c-0.6-0.6-0.9-1.4-1-2.3c0.3,0.4,1,0.6,2,0.5c1.3-0.1,2.4-0.5,3.4-1.4c0.8-0.7,1.4-1.5,1.9-2.3
				c0.4-0.7,0.7-1.1,1-1.3s0.6-0.4,1.3-0.4C124.5,103.4,125.4,104,125.9,105.2z"/>
			<path fill="#FED307" d="M146.3,77.8c-1.2,0.9-2.7,1.4-4.7,1.4c-1.9,0-3.4-0.2-4.5-0.8c-1.7-0.8-2.8-2-3.2-3.6l-3.9,0.2
				c0,1.2,0.2,2.3,0.6,3.4c0.7,2.1,2.2,3.8,4.5,5.1c1.5,0.9,3.8,1.3,6.8,1.2c3.6-0.1,6.4-1.1,8.4-3.2c0.2-0.2,0.4-0.4,0.6-0.7
				c0.3,0.6,0.6,1.2,1.1,1.6c0.9,0.9,2.1,1.5,3.6,1.6c-2.3,0.1-4.4,0.3-6.2,0.6c-1.6,0.3-2.8,0.7-3.8,1.4c-0.9,0.6-1.4,1.2-1.6,1.9
				c-0.2,0.6-0.1,1.1,0.3,1.6c0.6,0.4,1,0.6,1.3,0.7c0.1,0.1,0.1,0.2,0.1,0.3c0,0.2-0.1,0.4-0.4,0.5c-0.6,0.3-1.5,0.6-2.7,1.1
				l0.1,2.4c1.4-0.7,3.2-1.3,5.5-1.9c2-0.4,4.2-0.7,6.8-0.8c3.6-0.1,6.1,0.7,7.7,2.4c1.3,1.4,2,3.4,2.2,5.7c0,0.4,0,0.9,0,1.2
				c-0.2,1.8-0.7,3.3-1.5,4.5c-1.6,2.4-4.2,3.7-7.8,3.9c-1.9,0.1-3.5,0-4.8-0.4c-1.7-0.5-3-1.3-3.8-2.2c-1.2-1.4-1.9-2.9-1.9-4.5
				c-0.1-1.8,0.2-3.3,0.9-4.4c0.7-1.1,1.5-1.7,2.4-1.8c0.6,0,0.9,0.2,0.9,0.8c0,0.4-0.1,0.9-0.5,1.3c-0.3,0.4-0.6,0.9-0.7,1.4
				s-0.2,1-0.1,1.5c0,0.7,0.2,1.4,0.5,2c0.4,0.9,1,1.6,1.8,2.1c1.3,0.8,2.6,1.2,4.1,1.2c2,0,3.6-0.4,4.7-1.2c1.2-0.9,2-2,2.4-3.3
				c0.2-0.9,0.3-1.8,0.3-2.6c-0.1-2.6-1.2-4.4-3.1-5.4c-0.7-0.4-1.8-0.5-3.1-0.4c-1,0.1-1.9,0.5-2.6,1.3c-0.7,0.8-1,1.7-1,2.8
				c0.1,0.9,0.4,1.7,1,2.4c0.6,0.7,1.4,1,2.4,1.1c0.8,0.1,1.5-0.1,2.2-0.4c0.9-0.4,1.4-1.2,1.6-2.2c0.2,0.5,0.3,1,0.2,1.7
				c-0.1,0.5-0.2,0.9-0.4,1.2c-0.8,1.2-2.3,1.8-4.5,1.9c-1.9,0-3.1-0.6-3.6-2c-0.3-0.7-0.3-1.4,0-1.9c0.6-1.3,0.9-2.2,0.8-2.9
				c-0.1-0.8-0.5-1.5-1.2-2.1c-0.4-0.3-1-0.4-1.9-0.4c-1.2,0-2.3,0.4-3.1,1c-0.7,0.5-1.4,1.2-2,2.2c-0.6,1-1,2-1.2,3
				c-0.3,1.4-0.4,3-0.1,4.6c0.4,3.1,1.5,5.5,3.3,7.2c2.3,2.3,5.8,3.3,10.2,3.1c3.5-0.2,6.2-1,8-2.4c1.7-1.3,3-2.9,3.9-4.9
				c1-2.2,1.3-4.5,1.1-7.1c-0.2-1.6-0.6-3.3-1.4-5c-0.8-1.7-1.7-3.1-2.9-4.1c1.3-0.5,2.1-1.3,2.3-2.5c0-0.3,0.1-0.6,0-0.9
				c-0.1-1.3-0.6-2.3-1.7-3.1c-1.2-1-3.7-1.4-7.4-1.4c1.9-0.3,3.2-1.1,4.1-2.6c0.5-0.8,0.7-1.9,0.7-3.2c0-0.4,0-0.8-0.1-1.1
				c-0.2-0.9-0.5-1.8-0.9-2.6l-2.1,0c0.4,0.6,0.6,1.4,0.5,2.2c-0.1,0.7-0.4,1.3-0.9,1.7c-0.5,0.5-1.2,0.7-2.2,0.7
				c-1.3,0-2.1-0.4-2.6-1.2c-0.2-0.4-0.4-0.8-0.4-1.4c0-0.5,0.1-1.1,0.3-1.6c0.2-0.5,0.6-1.1,1-1.7l-6.3,0.4
				C148.4,75.5,147.7,76.7,146.3,77.8z M157,98.7c-0.3,0.4-0.7,0.6-1.1,0.6c-0.4,0.1-0.9,0-1.2-0.3c-0.4-0.3-0.6-0.6-0.7-1.1
				c-0.1-0.4,0.1-0.9,0.3-1.2c0.3-0.4,0.6-0.6,1.1-0.7c0.5-0.1,0.9,0,1.3,0.3c0.4,0.3,0.6,0.7,0.6,1.1
				C157.5,97.9,157.3,98.4,157,98.7z M161.8,88.4c0.8,0.3,1.2,0.8,1.3,1.4c0,0.5-0.3,0.8-1,0.9c-1.9-0.9-4.3-1.3-7-1.1
				c-3.1,0.2-5.3,0.4-6.8,0.8c0.1-0.1,0-0.3-0.1-0.4c-0.1-0.2-0.2-0.3-0.2-0.4c0-0.1,0.1-0.3,0.2-0.4c0.4-0.4,1.2-0.6,2.5-0.9
				c0.8-0.1,2.2-0.3,4.1-0.4C158.2,87.8,160.6,87.9,161.8,88.4z"/>
			<path fill="#FAF17D" d="M102.4,73.2c-0.6-0.9-1-1.6-1.3-2c-0.4-0.5-0.8-0.9-1.1-1.2c-1.6-1.6-4-2.4-7.1-2.7
				c-1.5-0.1-2.7-0.1-3.8,0c-0.8,0.1-1.5,0.3-2.3,0.5c-1.2,0.4-2.2,0.8-3.1,1.3c-0.2-0.7-0.5-1.2-1-1.7c-0.5-0.5-1-0.8-1.5-0.9
				c-0.7-0.2-1.5-0.3-2.3-0.2c-0.8,0-1.5,0.2-2.2,0.4c-0.6,0.2-1.1,0.6-1.6,1.1c-0.5,0.5-0.8,1.1-1,1.7c-0.2,0.9-0.1,1.8,0.3,2.5
				c0.4,0.6,0.9,1,1.6,1.1c0.8,0.1,1.5,0.1,1.9-0.1c-0.7,0.5-1.7,1.4-3,2.6c-1.1,1-1.9,1.7-2.2,2.2l0,0.4l3.8-0.2
				C76.2,78,76,78,75.8,78c0.6-0.6,1.1-1,1.4-1.3c1.3-1.1,2-1.8,2.3-2c0.9-0.7,1.7-1.2,2.3-1.5c0.4-0.2,0.7-0.3,1.2-0.3
				c1.1-0.1,2.1,0,3.1,0.3c0.8,0.2,1.4,0.5,1.9,0.9c1.2,0.9,2.1,2,2.5,3.3l3.1-0.2c-0.3-0.8-0.6-1.5-1-2.2c-0.5-0.8-1-1.4-1.5-1.9
				c-0.2-0.2-0.8-0.5-1.5-1.1c-0.8-0.5-2-0.8-3.5-0.9c-0.4,0-0.8,0-1.2,0c0.6-0.3,1.4-0.5,2.5-0.6c0.8-0.1,1.6-0.1,2.4,0
				c1.4,0.1,2.6,0.4,3.6,0.9c1.2,0.6,2.3,1.6,3.2,3.1c0.4,0.7,0.8,1.5,1,2.4l6-0.3c-0.1-0.4-0.2-0.9-0.4-1.5
				C102.9,74.4,102.7,73.8,102.4,73.2z M81.2,70.1c0,0.1-0.1,0.3-0.4,0.7c-0.5,0.4-1.1,0.9-1.7,1.4c0.4-0.5,0.6-1,0.5-1.6
				c-0.1-0.9-0.5-1.4-1.1-1.6c0.1-0.1,0.3-0.2,0.7-0.3c0.3-0.1,0.7,0,1.1,0.1C80.9,68.9,81.3,69.4,81.2,70.1z"/>
			<path fill="#FAF17D" d="M184.7,64.6c-0.7-0.5-1.6-0.8-2.6-1l-0.4-2.8c0.4,0.2,1.1,0.3,2,0.3c0.8-0.1,1.5-0.3,2-0.6
				c1.1-0.8,1.6-1.7,1.4-3c-0.1-0.6-0.2-1.1-0.5-1.5c-0.5-0.8-1.3-1.3-2.2-1.4c-0.5-0.1-1.1-0.1-1.6,0c-0.6,0.1-1.1,0.3-1.6,0.6
				c-0.4,0.2-0.6,0.5-0.8,0.9c-0.3-0.4-0.6-0.6-1-0.8c-0.7-0.2-1.3-0.2-1.9,0.1c-0.6,0.2-1,0.6-1.2,1l0.4,3.1
				c0.2-0.4,0.5-0.7,0.9-0.9c0.4-0.2,0.8-0.2,1.2-0.1c0.4,0.2,0.6,0.6,0.7,1.2l0.5,3.7c-0.6,0-1.3,0-2,0.1c-2.1,0.2-3.7,0.6-5,1.3
				c-1.1,0.6-2,1.2-2.7,1.8c-0.2-0.7-0.8-1.2-1.8-1.5c-0.6-0.2-1.5-0.2-2.8,0.1c-2.3,0.4-3.6,1.7-3.8,3.7c0,0.2,0,0.5,0,0.7
				c0.1,0.7,0.4,1.3,0.9,1.7c0.5,0.4,1.1,0.6,1.8,0.5c0.4-0.1,0.8-0.2,1.2-0.4c-0.6,0.6-1.1,1.2-1.6,1.9l2.6-0.1
				c0.2-0.2,0.4-0.4,0.6-0.6c0.8-0.9,1.4-1.5,1.7-1.7c0.5-0.4,1-0.7,1.6-0.8c1.1-0.2,2.1-0.2,2.9,0c0.8,0.3,1.4,0.7,2,1.4
				c0.3,0.4,0.5,0.8,0.7,1.3l3.7-0.2c-0.3-0.7-0.7-1.3-1.2-1.9c-0.5-0.6-1.2-1.1-2-1.5c-0.2-0.1-0.6-0.3-1.3-0.5
				c-0.8-0.3-1.9-0.4-3.1-0.3c-0.3,0-0.6,0.1-0.8,0.2c0.8-0.6,1.9-1,3.2-1.3c1.3-0.3,2.5-0.2,3.8,0c1.3,0.3,2.3,0.8,3.1,1.5
				c1.1,1,1.9,2.2,2.3,3.5l4.9-0.3c0-0.1,0-0.1,0-0.2C188.6,68.4,187.2,66.1,184.7,64.6z M167,70.1c0.1-0.4,0.1-0.7,0.1-1.1
				c-0.1-1-0.6-1.5-1.5-1.6c0.5-0.3,0.8-0.4,1.1-0.5c1.3-0.3,2,0.1,2.1,1.2L167,70.1z M181.4,57.9c0-0.3,0.1-0.6,0.3-0.8
				c0.3-0.3,0.6-0.4,1-0.3c0.3,0,0.5,0.2,0.6,0.4c0.2,0.2,0.3,0.5,0.3,0.7c0,0.4,0.1,0.7,0,0.9c-0.1,0.3-0.3,0.6-0.7,0.7
				c-0.4,0.2-0.8,0.1-1-0.1c-0.3-0.2-0.4-0.5-0.5-0.9L181.4,57.9z"/>
			<path fill="#FAF17D" d="M109.6,74.3c0.8-0.8,2-1.3,3.6-1.5l4.9-0.5c-0.1-1.3-0.2-2.2-0.5-2.8c-0.4-1-0.9-1.9-1.7-2.4
				c-1-0.8-2.4-1-4.4-0.8c-1.6,0.2-2.7,0.4-3.4,0.6c-1,0.3-1.7,0.9-2.2,1.6c-0.4,0.6-0.5,1.2-0.5,1.8c0.1,0.7,0.4,1.3,0.9,1.7
				c0.5,0.4,1.2,0.6,1.9,0.5c-1,0.5-1.8,1.3-2.4,2.5c-0.2,0.5-0.4,1-0.4,1.5l3.5-0.2C108.9,75.5,109.1,74.8,109.6,74.3z M111,68.4
				c1.6-0.4,2.8-0.2,3.7,0.5c0.5,0.5,0.8,1.1,0.9,1.8l-3.3,0.3c-0.6,0.1-1.1,0.1-1.4,0.1c0.6-0.4,0.8-1,0.7-1.7
				C111.5,69,111.3,68.7,111,68.4z"/>
			<path fill="#FAF17D" d="M128.8,72.2c-0.3-2.8-1-5.1-2.2-7c-1.2-1.9-2.6-3.3-4.3-4.2c-1.9-1-4.4-1.4-7.5-1
				c-3.6,0.4-6.3,1.3-7.9,2.9c-1.2,1.1-1.9,2.3-1.9,3.5l2.4-0.3c0.1-0.9,0.7-1.6,1.7-2.3c1.6-1,3.6-1.6,6-1.8
				c3.7-0.3,6.5,0.9,8.3,3.4c0.4,0.6,0.8,1.3,1,2.2c0.5,1.4,0.7,2.9,0.6,4.6c0,1.2-0.3,2.3-0.7,3.2l4.5-0.3
				C128.9,74.1,128.9,73.1,128.8,72.2z"/>
			<path fill="#FAF17D" d="M156,72.6c1.4-1.4,3.3-2.5,5.5-3.4l0-1.9l-10.9,0.2l0,1.1c-0.6-0.8-1.4-1.5-2.4-2.1
				c-1.6-0.9-3.6-1.4-5.8-1.5c1.2-0.2,2.2-0.5,3-0.9c1.2-0.6,2.3-1.4,3.1-2.5c0.8-0.9,1.2-1.8,1.3-2.7l-6,0.1
				c-0.1,0.7-0.6,1.6-1.5,2.6c-0.6,0.6-1.1,1.1-1.5,1.4c-0.9,0.7-1.8,1.3-2.7,1.6c-2,0.8-3.5,1.6-4.5,2.3c-0.9,0.6-1.6,1.4-2.3,2.4
				c-0.7,1-1.1,2.2-1.3,3.6c-0.1,0.7-0.2,1.3-0.2,2l3.9-0.2c-0.1-0.3-0.1-0.5-0.2-0.8c0-0.3,0-0.6-0.1-0.8c0-2.4,1-4.2,3-5.3
				c1.2-0.6,2.7-1,4.7-1c1.8,0,3.4,0.3,4.6,1c0.9,0.5,1.6,1.3,2.1,2.3c0.5,1,0.7,2.1,0.6,3.3c0,0.2,0,0.3-0.1,0.5l6.3-0.4
				C155.2,73.3,155.6,72.9,156,72.6z M152.5,73.2c-0.1-0.8-0.3-1.5-0.6-2.3l3.3-0.1c-0.8,0.4-1.6,1.1-2.4,2.1
				C152.6,73,152.6,73.1,152.5,73.2z"/>
		</g>
	</g>
	<g>
		<circle fill="#6B1548" cx="193.4" cy="89.2" r="11"/>
		<circle fill="#9E1F63" cx="193.4" cy="86.8" r="11"/>
		<circle fill="#FED307" cx="193.4" cy="86.8" r="10"/>
		<g>
			<path fill="#FCAF17" d="M199.1,78.6l-14,14c1,1.4,2.3,2.6,3.8,3.3l13.4-13.4C201.6,80.8,200.5,79.5,199.1,78.6z"/>
			<path fill="#FCAF17" d="M203.4,85.9c0-0.5-0.1-1-0.3-1.5l-12.2,12.2c0.5,0.1,1,0.2,1.5,0.3L203.4,85.9z"/>
			<path fill="#FCAF17" d="M183.4,87.6c0.1,0.9,0.2,1.7,0.5,2.5l12.8-12.8c-0.8-0.3-1.6-0.4-2.5-0.5L183.4,87.6z"/>
		</g>
		<circle fill="#FCF174" cx="193.4" cy="86.8" r="7.3"/>
		<g>
			<path fill="#D76E27" d="M196.8,83.4l-7.7,0v0.9l-0.2,0l-0.2,0.2l0.3,0.3l0,0h6.6c0,0,0.7,0,0.7,0.4v1.1c0,0,0,0.4-0.7,0.4
				c-0.7,0-6.6,0-6.6,0v3.9l-0.2,0l-0.2,0.2l0.3,0.3l2.1,0v-3h5.6c0,0,1.7,0.1,1.7-1.5v-1.8C198.4,84.8,198.7,83.4,196.8,83.4z"/>
			<g>
				<path fill="#FEBC12" d="M188.8,90.8l2.1,0v-3h5.6c0,0,1.7,0.1,1.7-1.5v-1.8c0,0,0.2-1.4-1.7-1.4l-7.7,0v1.4h6.6
					c0,0,0.7,0,0.7,0.4V86c0,0,0,0.4-0.7,0.4c-0.7,0-6.6,0-6.6,0V90.8z"/>
			</g>
		</g>
	</g>
	<g opacity="0.7">
		<g>
			<path fill="#FFFFFF" d="M186.1,87.2c-0.6,0-1-0.5-1-1V58.4c0-0.6,0.5-1,1-1c0.6,0,1,0.5,1,1v27.8
				C187.1,86.8,186.7,87.2,186.1,87.2z"/>
		</g>
		<g>
			<path fill="#FFFFFF" d="M191.4,56.2c-0.6,0-1-0.5-1-1v-4.3c0-0.6,0.5-1,1-1c0.6,0,1,0.5,1,1v4.3C192.4,55.8,192,56.2,191.4,56.2z
				"/>
		</g>
		<g>
			<path fill="#FFFFFF" d="M191.4,79.6c-0.6,0-1-0.5-1-1V59.1c0-0.6,0.5-1,1-1c0.6,0,1,0.5,1,1v19.5C192.4,79.2,192,79.6,191.4,79.6
				z"/>
		</g>
		<g>
			<path fill="#FFFFFF" d="M196.9,83.2c-0.6,0-1-0.5-1-1V54.4c0-0.6,0.5-1,1-1c0.6,0,1,0.5,1,1v27.8C198,82.7,197.5,83.2,196.9,83.2
				z"/>
		</g>
		<g>
			<path fill="#FFFFFF" d="M202.3,86c-0.6,0-1-0.5-1-1V67.2c0-0.6,0.5-1,1-1c0.6,0,1,0.5,1,1V85C203.3,85.6,202.8,86,202.3,86z"/>
		</g>
	</g>
	<g opacity="0.7">
		<g>
			<path fill="#FFFFFF" d="M132.7,146.2c-0.4,0-0.7-0.3-0.7-0.7v-18.7c0-0.4,0.3-0.7,0.7-0.7c0.4,0,0.7,0.3,0.7,0.7v18.7
				C133.4,145.9,133.1,146.2,132.7,146.2z"/>
		</g>
		<g>
			<path fill="#FFFFFF" d="M136.3,125.3c-0.4,0-0.7-0.3-0.7-0.7v-2.9c0-0.4,0.3-0.7,0.7-0.7c0.4,0,0.7,0.3,0.7,0.7v2.9
				C137,125,136.7,125.3,136.3,125.3z"/>
		</g>
		<g>
			<path fill="#FFFFFF" d="M136.3,141.1c-0.4,0-0.7-0.3-0.7-0.7v-13.2c0-0.4,0.3-0.7,0.7-0.7c0.4,0,0.7,0.3,0.7,0.7v13.2
				C137,140.8,136.7,141.1,136.3,141.1z"/>
		</g>
		<g>
			<path fill="#FFFFFF" d="M140.1,143.5c-0.4,0-0.7-0.3-0.7-0.7v-18.7c0-0.4,0.3-0.7,0.7-0.7c0.4,0,0.7,0.3,0.7,0.7v18.7
				C140.7,143.2,140.4,143.5,140.1,143.5z"/>
		</g>
		<g>
			<path fill="#FFFFFF" d="M143.6,145.4c-0.4,0-0.7-0.3-0.7-0.7v-12c0-0.4,0.3-0.7,0.7-0.7s0.7,0.3,0.7,0.7v12
				C144.3,145.1,144,145.4,143.6,145.4z"/>
		</g>
	</g>
	<g opacity="0.7">
		<g>
			<path fill="#FFFFFF" d="M178.6,146.1c-0.5,0-0.9-0.4-0.9-0.9v-33.5c0-0.5,0.4-0.9,0.9-0.9c0.5,0,0.9,0.4,0.9,0.9v33.5
				C179.4,145.7,179,146.1,178.6,146.1z"/>
		</g>
		<g>
			<path fill="#FFFFFF" d="M183,110c-0.5,0-0.9-0.4-0.9-0.9v-3.6c0-0.5,0.4-0.9,0.9-0.9c0.5,0,0.9,0.4,0.9,0.9v3.6
				C183.9,109.6,183.5,110,183,110z"/>
		</g>
		<g>
			<path fill="#FFFFFF" d="M183,139.8c-0.5,0-0.9-0.4-0.9-0.9v-26.5c0-0.5,0.4-0.9,0.9-0.9c0.5,0,0.9,0.4,0.9,0.9v26.5
				C183.9,139.4,183.5,139.8,183,139.8z"/>
		</g>
		<g>
			<path fill="#FFFFFF" d="M187.7,142.7c-0.5,0-0.9-0.4-0.9-0.9v-33.5c0-0.5,0.4-0.9,0.9-0.9c0.5,0,0.9,0.4,0.9,0.9v33.5
				C188.5,142.4,188.1,142.7,187.7,142.7z"/>
		</g>
		<g>
			<path fill="#FFFFFF" d="M192.1,145.1c-0.5,0-0.9-0.4-0.9-0.9v-25.1c0-0.5,0.4-0.9,0.9-0.9c0.5,0,0.9,0.4,0.9,0.9v25.1
				C193,144.7,192.6,145.1,192.1,145.1z"/>
		</g>
	</g>
	<g>
		<circle fill="#6B1548" cx="138.3" cy="146.8" r="7.1"/>
		<circle fill="#9E1F63" cx="138.3" cy="145.3" r="7.1"/>
		<circle fill="#FED307" cx="138.3" cy="145.3" r="6.5"/>
		<g>
			<path fill="#FCAF17" d="M142,139.9l-9.1,9.1c0.6,0.9,1.5,1.7,2.5,2.2l8.7-8.7C143.7,141.4,142.9,140.5,142,139.9z"/>
			<path fill="#FCAF17" d="M144.8,144.7c0-0.3-0.1-0.7-0.2-1l-7.9,7.9c0.3,0.1,0.6,0.1,1,0.2L144.8,144.7z"/>
			<path fill="#FCAF17" d="M131.8,145.7c0,0.6,0.2,1.1,0.3,1.6l8.3-8.3c-0.5-0.2-1.1-0.3-1.6-0.3L131.8,145.7z"/>
		</g>
		<circle fill="#FCF174" cx="138.3" cy="145.3" r="4.7"/>
		<g>
			<path fill="#D76E27" d="M140.5,143l-5,0v0.6l-0.1,0l-0.1,0.2l0.2,0.2l0,0h4.3c0,0,0.4,0,0.4,0.3v0.7c0,0,0,0.2-0.4,0.2
				c-0.4,0-4.3,0-4.3,0v2.5l-0.1,0l-0.1,0.2l0.2,0.2l1.3,0v-1.9h3.6c0,0,1.1,0.1,1.1-1v-1.2C141.6,143.9,141.7,143,140.5,143z"/>
			<g>
				<path fill="#FEBC12" d="M135.3,147.8l1.3,0v-1.9h3.6c0,0,1.1,0.1,1.1-1v-1.2c0,0,0.1-0.9-1.1-0.9l-5,0v0.9h4.3
					c0,0,0.4,0,0.4,0.3v0.7c0,0,0,0.2-0.4,0.2c-0.4,0-4.3,0-4.3,0V147.8z"/>
			</g>
		</g>
	</g>
	<g>
		<circle fill="#6B1548" cx="164.9" cy="39.5" r="6.2"/>
		<circle fill="#9E1F63" cx="164.9" cy="38.2" r="6.2"/>
		<circle fill="#FED307" cx="164.9" cy="38.2" r="5.6"/>
		<g>
			<path fill="#FCAF17" d="M168.1,33.6l-7.8,7.8c0.5,0.8,1.3,1.4,2.2,1.9l7.5-7.5C169.5,34.8,168.9,34.1,168.1,33.6z"/>
			<path fill="#FCAF17" d="M170.5,37.7c0-0.3-0.1-0.6-0.1-0.8l-6.8,6.8c0.3,0.1,0.6,0.1,0.8,0.1L170.5,37.7z"/>
			<path fill="#FCAF17" d="M159.3,38.6c0,0.5,0.1,1,0.3,1.4l7.1-7.1c-0.4-0.2-0.9-0.3-1.4-0.3L159.3,38.6z"/>
		</g>
		<circle fill="#FCF174" cx="164.9" cy="38.2" r="4.1"/>
		<g>
			<path fill="#D76E27" d="M166.8,36.3l-4.3,0v0.5l-0.1,0l-0.1,0.1l0.2,0.2l0,0h3.7c0,0,0.4,0,0.4,0.2v0.6c0,0,0,0.2-0.4,0.2
				c-0.4,0-3.7,0-3.7,0v2.2l-0.1,0l-0.1,0.1l0.2,0.2l1.1,0v-1.7h3.1c0,0,0.9,0.1,0.9-0.8v-1C167.7,37.1,167.9,36.3,166.8,36.3z"/>
			<g>
				<path fill="#FEBC12" d="M162.3,40.4l1.1,0v-1.7h3.1c0,0,0.9,0.1,0.9-0.8v-1c0,0,0.1-0.8-0.9-0.8l-4.3,0v0.8h3.7
					c0,0,0.4,0,0.4,0.2v0.6c0,0,0,0.2-0.4,0.2c-0.4,0-3.7,0-3.7,0V40.4z"/>
			</g>
		</g>
	</g>
</g>
</svg>
