<?xml version="1.0" encoding="utf-8"?>
<!-- Generator: Adobe Illustrator 18.0.0, SVG Export Plug-In . SVG Version: 6.00 Build 0)  -->
<!DOCTYPE svg PUBLIC "-//W3C//DTD SVG 1.1//EN" "http://www.w3.org/Graphics/SVG/1.1/DTD/svg11.dtd">
<svg version="1.1" id="Layer_1" xmlns="http://www.w3.org/2000/svg" xmlns:xlink="http://www.w3.org/1999/xlink" x="0px" y="0px"
	 viewBox="0 0 255.1 170.1" enable-background="new 0 0 255.1 170.1" xml:space="preserve">
<g>
	<rect x="-1.7" y="-2.3" fill="#FED307" width="258" height="173.8"/>
	<g>
		<defs>
			<rect id="SVGID_1_" x="-0.7" y="-1.6" width="257" height="172.4"/>
		</defs>
		<clipPath id="SVGID_2_">
			<use xlink:href="#SVGID_1_"  overflow="visible"/>
		</clipPath>
		<g clip-path="url(#SVGID_2_)">
			<defs>
				<rect id="SVGID_3_" x="-129" y="-119.2" width="564" height="388.4"/>
			</defs>
			<clipPath id="SVGID_4_">
				<use xlink:href="#SVGID_3_"  overflow="visible"/>
			</clipPath>
			<path clip-path="url(#SVGID_4_)" fill-rule="evenodd" clip-rule="evenodd" fill="#FDDA39" d="M561.8,45.6
				c-19.1,8.3-75,35.3-128,53.2c-54.2,19-105.5,28.9-144.3,28.7c-77.6-0.5-108.6-37.4-109.1-38.3c3.1-4.3,42.2,24.3,112.9,18.6
				c35.4-2.9,79.8-15.4,126-37.2c45.5-20.8,93-50.9,116.4-65.4c-11.2-11-23.2-20.1-34.9-29.5c-10.5,7-44.1,36.8-81.3,60.7
				c-37.6,24.9-78.9,43.7-114.5,51.8c-72.1,18-121.1-9.1-121.4-8.2c1.4-4.7,57,13.8,122.1-13c32.4-12.3,67.2-34.5,96.8-60.5
				c29.4-25.2,53.7-54.1,61.7-60.2c-12.5-11.1-25.7-24.3-41.8-39.4c-6.3,7.3-21.8,39-43.6,67.7C357.3,4.2,329.4,30.8,301,47
				c-56.4,35.1-115.4,23.6-115.2,24.5c-1.2-4.5,59.4-2.4,104.1-45c22.7-20.5,41.9-51.7,53.7-86.4c12.2-33.7,17-70.8,20.2-81
				c-23.1-16-50.1-31.3-79.2-43.3c1.9,13.2,12.6,56.4,13.2,95.1c1.5,39.9-7.1,75.4-23.3,99.7c-32.1,48.9-92.9,54.6-91.8,55
				c-3.3-4.2,53.7-19,70-71.9c8.2-26.4,5.1-63.4-10-104.3c-13.8-39.8-39.7-83.6-47.3-98.1c-29.1-3.9-56.5-3.6-80.2-0.3
				c11.5,13.2,49.6,52.2,74.8,89.4c26.8,38,40.7,74.1,40.6,101.5c-0.5,54.7-52.2,76.9-51.8,77.6c-6.2-2.2,37.5-31.8,23.8-85.2
				c-6.4-26.6-27.9-59.4-60.8-91.9c-31.3-31.9-74.1-63.4-86.2-73.6c-16.4,7.6-29.7,16.1-42.8,24.4c10,7.3,52.4,30.4,86.7,56.2
				c35.7,26.1,63.3,54.9,75.9,80c27.6,50.8-8.4,85.4-7.2,85.1c-6.5-1.2,17.3-40.5-23.4-86.3c-18.7-22.8-51.4-47.1-89-67.5
				c-36.4-20.4-77.7-36.9-86.6-42.6c-16,8.7-35,17.8-56.8,28.9c10.7,4.4,56.4,14.8,98.3,29.8C53.9-68.4,93-48.9,117.4-29
				c52.6,39.7,38.8,81,38.1,80.1c-8.1,0.2-7.8-41.9-70.9-72.8C54.3-37.5,9.1-50.7-40.5-58.8c-48.3-8.4-101-11.7-116-13.9
				c-22.6,15.9-44.7,34.4-62.7,54.4c19.3-1.3,81.5-9.1,137.9-9.6c58-1.2,110,4.9,145.7,16.3c72.2,22.9,81.6,65.6,80.3,65.5
				c-7.8,3-29.7-37-106.1-49.1c-38.2-6-91.6-4.3-150.9,6c-57.7,9.4-121.2,27.2-142.5,32.6c-5.3,18.9-2.5,17.5,2.1,30.8
				c-4.8,16.8-7,17.2-2.4,32.5c19.1-8.3,75.6-35.4,128.8-53.2c54.5-18.9,105.9-28.5,144.4-28c77,1.2,107,38.8,106.6,39.6
				C119.9,70.5,79.5,39,5.5,47.3c-36.9,3.9-83,18.2-129.3,40.7c-45.3,21.4-90.9,51-105.6,59.6c11.6,10.7,23.8,19.7,35.5,29
				c10.8-7.4,43.7-36.4,80.1-60C-77,92.1-36.6,73.2-1.5,64.7c71-18.9,119,6.7,119.9,7.3c-0.8,5.8-54.8-11.7-118.6,14.9
				c-31.8,12.2-66.1,34-95.5,59.6c-29.2,24.7-53.6,53.1-61.8,59.5c12.5,11.1,25.7,24.3,41.8,39.5c6.2-7.1,21.7-38.5,43.3-67.1
				c21.5-29.4,49.2-56,77.5-72.3C61.2,70.7,120,82,120.4,81.3c1.8,4.7-58.5,2.5-103,45.1c-22.7,20.5-41.8,51.7-53.7,86.2
				c-12.2,33.6-17.2,70.6-20.4,80.4c23,16.1,49.9,31.4,78.9,43.3c-1.9-13.2-12-56-12.2-94.4c-1.1-39.6,7.6-74.8,23.8-98.7
				c32-48.3,92.4-53.2,91.3-53.6c3.2,4.2-53.3,18.3-69.4,70.5c-8.2,26.1-5.2,62.6,9.4,103.2c13.4,39.5,38.5,83,46.1,97.4
				c29.1,3.9,56.5,3.6,80.2,0.3c-11.5-13.2-49.4-52.6-74.2-89.9c-26.4-38.2-39.8-74.2-39-101.3c1.8-54.2,54.8-75.6,54.4-76.3
				c6.2,2.3-38.7,31.2-26.4,84.1c5.8,26.4,26.6,59.1,59.1,91.7c30.9,32,73.5,63.8,85.7,74.1c16.4-7.7,29.8-16.2,43.1-24.5
				c-10.4-7.5-52.8-30.7-86.9-56.6c-35.5-26.2-62.8-55-75.1-80c-27-50.7,9.4-85.2,8.1-85.4c6.5,0.8-18.2,40,21.5,86
				c18.3,22.9,50.7,47.3,88.3,68c36.4,20.6,78.1,37.3,87.1,43.1c16-8.6,35-17.6,56.6-28.6c-10.2-4.4-56.1-15-98-30.3
				c-43-15.2-82-35-106-55.2c-51.8-40.3-36.4-82.5-37.5-82.4c6.8-1.1,4.3,42.5,66.8,74.8c30.1,16.4,75.8,30.2,126.4,38.6
				c49.2,8.7,103.4,11.9,117.6,14.2c22.6-15.9,44.4-34.4,61.9-54.4c-31.2,2.8-95.3,9.3-150.4,8.6c-56.6-0.1-104.3-7.4-136.6-19.2
				c-64.2-24-72.5-63.5-72-62.9c7.7-2.4,28.8,37.6,104.4,49.5c37.8,6,90.7,4.4,149.4-5.6c57.2-9.1,120.1-26.5,141.4-31.9
				c4.5-17.9,4.7-19.9,1.4-32.3C566.2,62.1,565.6,60.5,561.8,45.6z"/>
		</g>
	</g>
</g>
</svg>
